<?xml version="1.0" encoding="UTF-8" standalone="no"?>
<!DOCTYPE svg PUBLIC "-//W3C//DTD SVG 1.1//EN" "http://www.w3.org/Graphics/SVG/1.1/DTD/svg11.dtd">
<svg width="100%" height="100%" viewBox="0 0 200 200" version="1.1" xmlns="http://www.w3.org/2000/svg" xmlns:xlink="http://www.w3.org/1999/xlink" xml:space="preserve" xmlns:serif="http://www.serif.com/" style="fill-rule:evenodd;clip-rule:evenodd;stroke-linejoin:round;stroke-miterlimit:2;">
    <g transform="matrix(0.376953,0,0,0.376953,4.89572,3.5)">
        <path d="M263.432,3.136C259.272,-1.035 252.518,-1.043 248.347,3.117L56.328,195.136C52.235,199.373 52.353,206.126 56.59,210.219C60.724,214.211 67.277,214.211 71.41,210.219L245.213,36.416L245.213,501.333C245.213,507.224 249.989,512 255.88,512C261.771,512 266.547,507.224 266.547,501.333L266.547,36.416L440.328,210.197C444.421,214.434 451.173,214.552 455.411,210.459C459.648,206.366 459.765,199.614 455.673,195.376C455.587,195.287 455.5,195.2 455.411,195.114L263.432,3.136Z" style="fill:white;fill-rule:nonzero;"/>
    </g>
    <g transform="matrix(0.376953,0,0,0.376953,4.89572,3.5)">
        <path d="M447.88,213.333C445.049,213.338 442.332,212.218 440.328,210.218L255.88,25.749L71.432,210.219C67.195,214.312 60.442,214.194 56.349,209.957C52.357,205.823 52.357,199.27 56.349,195.137L248.349,3.137C252.514,-1.027 259.266,-1.027 263.432,3.137L455.432,195.137C459.591,199.309 459.581,206.063 455.408,210.222C453.409,212.214 450.702,213.333 447.88,213.333Z" style="fill:white;fill-rule:nonzero;"/>
    </g>
    <g transform="matrix(0.376953,0,0,0.376953,4.89572,3.5)">
        <path d="M255.88,512C249.989,512 245.213,507.224 245.213,501.333L245.213,10.667C245.213,4.776 249.989,0 255.88,0C261.771,0 266.547,4.776 266.547,10.667L266.547,501.334C266.546,507.224 261.771,512 255.88,512Z" style="fill:white;fill-rule:nonzero;"/>
    </g>
</svg>
