<?xml version="1.0" encoding="UTF-8" standalone="no"?>
<!DOCTYPE svg PUBLIC "-//W3C//DTD SVG 1.1//EN" "http://www.w3.org/Graphics/SVG/1.1/DTD/svg11.dtd">
<svg width="100%" height="100%" viewBox="0 0 808 904" version="1.1" xmlns="http://www.w3.org/2000/svg" xmlns:xlink="http://www.w3.org/1999/xlink" xml:space="preserve" xmlns:serif="http://www.serif.com/" style="fill-rule:evenodd;clip-rule:evenodd;stroke-linejoin:round;stroke-miterlimit:2;">
    <g transform="matrix(0.64,0,0,0.64,0,0)">
        <g transform="matrix(4.16667,0,0,4.16667,0,0)">
            <path d="M241.873,282.125L241.873,264.795L243.682,264.795L243.682,271.92L250.404,271.92L250.404,264.795L252.219,264.795L252.219,282.125L250.404,282.125L250.404,273.74L243.682,273.74L243.682,282.125L241.873,282.125ZM228.477,273.746C228.477,272.398 228.516,271.246 228.596,270.291C228.674,269.34 228.885,268.4 229.232,267.479C229.576,266.551 230.143,265.793 230.926,265.191C231.711,264.594 232.764,264.275 234.088,264.23C234.982,264.23 235.799,264.398 236.533,264.738C237.268,265.076 237.863,265.648 238.318,266.455C238.77,267.256 238.998,268.318 238.998,269.631C238.998,269.832 238.99,269.98 238.975,270.068L237.17,270.068C237.17,268.895 236.951,267.934 236.51,267.182C236.074,266.432 235.199,266.055 233.898,266.055C232.545,266.055 231.664,266.748 231.262,268.146C230.855,269.545 230.656,271.184 230.656,273.063L230.656,273.74C230.656,275.123 230.721,276.281 230.85,277.225C230.975,278.17 231.277,278.965 231.754,279.615C232.229,280.264 232.943,280.619 233.898,280.678C234.781,280.678 235.451,280.418 235.906,279.895C236.367,279.369 236.656,278.754 236.787,278.043C236.92,277.334 236.986,276.566 236.986,275.75L238.975,275.75C238.99,275.889 238.998,276.092 238.998,276.355C238.998,277.193 238.906,277.982 238.725,278.719C238.543,279.455 238.25,280.105 237.863,280.674C237.473,281.242 236.963,281.689 236.328,282.016C235.695,282.34 234.943,282.502 234.088,282.502C232.896,282.451 231.932,282.211 231.184,281.77C230.439,281.33 229.871,280.729 229.48,279.965C229.09,279.201 228.824,278.314 228.684,277.307C228.545,276.303 228.477,275.111 228.477,273.746ZM219.936,282.125L219.936,275.563L214.699,264.795L217.037,264.795L220.84,273.367L224.67,264.795L226.826,264.795L221.934,275.563L221.934,282.125L219.936,282.125ZM202.023,282.125L202.023,264.795L205.291,264.795L210.719,280.49L210.719,264.795L212.711,264.795L212.711,282.125L209.439,282.125L204.018,266.244L204.018,282.125L202.023,282.125ZM185.01,282.125L181.393,264.795L183.572,264.795L185.91,276.664L186.285,280.117L186.813,276.664L189.369,264.795L191.707,264.795L194.262,277.197L194.604,280.309L194.979,277.197L197.502,264.795L199.5,264.795L195.883,282.125L193.328,282.125L190.807,268.813L190.432,266.244L190.271,268.813L187.533,282.125L185.01,282.125ZM176.844,275.377L174.666,266.428L172.508,275.377L176.844,275.377ZM168.525,282.125L173.418,264.795L176.125,264.795L180.836,282.125L178.656,282.125L177.404,277.197L171.957,277.197L170.705,282.125L168.525,282.125ZM158.217,272.643L161.297,272.643C161.957,272.643 162.52,272.527 162.984,272.297C163.453,272.068 163.805,271.736 164.043,271.309C164.281,270.881 164.404,270.367 164.404,269.768C164.404,269.729 164.398,269.656 164.391,269.564C164.383,269.467 164.379,269.396 164.379,269.346C164.287,268.361 163.969,267.66 163.418,267.24C162.869,266.822 162.039,266.613 160.926,266.613L158.217,266.613L158.217,272.643ZM156.219,282.125L156.219,264.795L161.297,264.795C162.225,264.795 163.047,264.904 163.766,265.117C164.484,265.334 165.1,265.762 165.611,266.404C166.125,267.045 166.439,267.965 166.561,269.162L166.561,269.49C166.561,270.191 166.396,270.828 166.08,271.396C165.758,271.967 165.35,272.42 164.846,272.76C164.344,273.102 163.826,273.305 163.289,273.367C163.482,273.406 163.727,273.461 164.012,273.523C164.303,273.586 164.578,273.684 164.84,273.814C165.102,273.945 165.34,274.152 165.555,274.441C165.77,274.73 165.922,275.104 166.002,275.563C166.068,276.299 166.145,277.156 166.234,278.129C166.328,279.1 166.451,279.922 166.613,280.588C166.775,281.258 166.996,281.588 167.277,281.588L167.277,282.125L164.908,282.125C164.654,281.607 164.5,280.922 164.445,280.07C164.395,279.213 164.332,278.318 164.264,277.375C164.195,276.436 163.969,275.715 163.59,275.217C163.209,274.715 162.564,274.465 161.645,274.465L158.217,274.465L158.217,282.125L156.219,282.125ZM145.35,272.994L148.063,272.994C149.203,272.994 150.029,272.756 150.551,272.277C151.069,271.799 151.326,270.949 151.326,269.723C151.326,267.773 150.3,266.799 148.248,266.799L145.35,266.799L145.35,272.994ZM143.353,282.125L143.353,264.795L148.248,264.795C149.735,264.795 150.983,265.158 151.991,265.877C153.002,266.598 153.506,267.939 153.506,269.91C153.506,270.838 153.354,271.674 153.047,272.414C152.739,273.152 152.232,273.74 151.532,274.182C150.828,274.621 149.929,274.84 148.824,274.84C148.657,274.84 148.521,274.83 148.43,274.814L145.35,274.814L145.35,282.125L143.353,282.125ZM120.172,282.125L116.555,264.795L118.734,264.795L121.072,276.664L121.446,280.117L121.976,276.664L124.531,264.795L126.868,264.795L129.422,277.197L129.767,280.309L130.141,277.197L132.664,264.795L134.661,264.795L131.044,282.125L128.491,282.125L125.968,268.813L125.593,266.244L125.435,268.813L122.694,282.125L120.172,282.125ZM109.766,260.184L112.297,260.184L109.398,263.498L107.775,263.498L109.766,260.184ZM105.453,273.15C105.453,273.156 105.462,273.324 105.474,273.65C105.484,273.977 105.492,274.34 105.5,274.736C105.53,275.77 105.639,276.73 105.825,277.609C106.014,278.494 106.381,279.248 106.938,279.875C107.481,280.514 108.255,280.834 109.256,280.834C110.265,280.834 111.037,280.553 111.578,279.996C112.119,279.447 112.475,278.764 112.641,277.936C112.811,277.068 112.896,276.111 112.896,275.068C112.896,275.006 112.893,274.867 112.884,274.645C112.876,274.426 112.872,274.238 112.872,274.086L112.872,273.15C112.872,271.705 112.779,270.498 112.595,269.529C112.432,268.557 112.068,267.762 111.504,267.143C110.944,266.535 110.133,266.232 109.07,266.232C108.101,266.232 107.35,266.566 106.825,267.236C106.284,267.926 105.921,268.773 105.731,269.785C105.547,270.834 105.453,271.959 105.453,273.15ZM103.46,273.172C103.487,272.408 103.532,271.553 103.603,270.6C103.668,269.564 103.862,268.6 104.179,267.703C104.508,266.809 105.071,266.045 105.871,265.418C106.69,264.779 107.812,264.439 109.233,264.391C110.422,264.391 111.411,264.656 112.2,265.186C112.997,265.699 113.591,266.395 113.99,267.264C114.36,268.041 114.639,268.973 114.819,270.066C114.959,270.891 115.028,271.99 115.028,273.359L115.028,273.85C115.028,276.209 114.682,278.232 113.984,279.926C113.26,281.619 111.674,282.469 109.233,282.469C107.744,282.469 106.57,282.094 105.709,281.342C104.862,280.631 104.274,279.596 103.947,278.24C103.622,276.877 103.46,275.189 103.46,273.172ZM90.48,273.746C90.48,272.398 90.519,271.246 90.599,270.291C90.677,269.34 90.889,268.4 91.238,267.479C91.581,266.551 92.146,265.793 92.93,265.191C93.714,264.594 94.768,264.275 96.09,264.23C96.987,264.23 97.801,264.398 98.537,264.738C99.271,265.076 99.866,265.648 100.322,266.455C100.774,267.256 101.002,268.318 101.002,269.631C101.002,269.832 100.994,269.98 100.979,270.068L99.174,270.068C99.174,268.895 98.954,267.934 98.513,267.182C98.077,266.432 97.204,266.055 95.902,266.055C94.549,266.055 93.668,266.748 93.266,268.146C92.86,269.545 92.66,271.184 92.66,273.063L92.66,273.74C92.66,275.123 92.725,276.281 92.852,277.225C92.979,278.17 93.281,278.965 93.757,279.615C94.232,280.264 94.947,280.619 95.902,280.678C96.787,280.678 97.455,280.418 97.911,279.895C98.371,279.369 98.66,278.754 98.792,278.043C98.923,277.334 98.988,276.566 98.988,275.75L100.979,275.75C100.994,275.889 101.002,276.092 101.002,276.355C101.002,277.193 100.909,277.982 100.727,278.719C100.547,279.455 100.256,280.105 99.866,280.674C99.475,281.242 98.965,281.689 98.332,282.016C97.698,282.34 96.949,282.502 96.09,282.502C94.9,282.451 93.934,282.211 93.188,281.77C92.443,281.33 91.876,280.729 91.485,279.965C91.094,279.201 90.827,278.314 90.689,277.307C90.549,276.303 90.48,275.111 90.48,273.746ZM79.073,280.309L82.161,280.309C84.587,280.309 85.801,278.361 85.801,274.469C85.801,274.277 85.796,274.096 85.79,273.914C85.778,273.74 85.773,273.621 85.773,273.553C85.773,272.006 85.693,270.752 85.534,269.803C85.376,268.854 84.994,268.082 84.391,267.492C83.784,266.906 82.852,266.613 81.6,266.613L79.073,266.613L79.073,280.309ZM77.077,282.125L77.077,264.795L82.161,264.795C86.025,264.795 87.957,267.475 87.957,272.83C87.957,274.273 87.841,275.66 87.612,276.988C87.385,278.314 86.833,279.502 85.96,280.553C85.083,281.6 83.777,282.125 82.042,282.125L77.077,282.125ZM70.909,275.377L68.729,266.428L66.573,275.377L70.909,275.377ZM62.589,282.125L67.481,264.795L70.19,264.795L74.9,282.125L72.72,282.125L71.469,277.197L66.02,277.197L64.769,282.125L62.589,282.125ZM52.28,272.643L55.36,272.643C56.021,272.643 56.585,272.527 57.048,272.297C57.515,272.068 57.868,271.736 58.106,271.309C58.347,270.881 58.466,270.367 58.466,269.768C58.466,269.729 58.463,269.656 58.455,269.564C58.447,269.467 58.443,269.396 58.443,269.346C58.35,268.361 58.034,267.66 57.481,267.24C56.932,266.822 56.102,266.613 54.99,266.613L52.28,266.613L52.28,272.643ZM50.283,282.125L50.283,264.795L55.36,264.795C56.287,264.795 57.11,264.904 57.829,265.117C58.547,265.334 59.162,265.762 59.676,266.404C60.19,267.045 60.503,267.965 60.623,269.162L60.623,269.49C60.623,270.191 60.46,270.828 60.144,271.396C59.823,271.967 59.413,272.42 58.911,272.76C58.41,273.102 57.891,273.305 57.354,273.367C57.546,273.406 57.79,273.461 58.076,273.523C58.367,273.586 58.64,273.684 58.903,273.814C59.166,273.945 59.406,274.152 59.618,274.441C59.835,274.73 59.985,275.104 60.066,275.563C60.131,276.299 60.21,277.156 60.297,278.129C60.39,279.1 60.515,279.922 60.676,280.588C60.839,281.258 61.059,281.588 61.341,281.588L61.341,282.125L58.973,282.125C58.717,281.607 58.563,280.922 58.508,280.07C58.459,279.213 58.397,278.318 58.327,277.375C58.258,276.436 58.034,275.715 57.655,275.217C57.272,274.715 56.627,274.465 55.709,274.465L52.28,274.465L52.28,282.125L50.283,282.125Z" style="fill:rgb(198,201,201);"/>
            <path d="M218.895,248.59L216.715,239.707L214.559,248.59L218.895,248.59ZM210.574,255.291L215.469,238.088L218.176,238.088L222.887,255.291L220.707,255.291L219.455,250.398L214.006,250.398L212.756,255.291L210.574,255.291ZM201.324,253.486L204.59,253.486C206.383,253.486 207.279,252.457 207.279,250.398C207.279,249.262 207.033,248.463 206.533,248.002C206.033,247.543 205.268,247.314 204.223,247.314L201.324,247.314L201.324,253.486ZM203.852,245.506C204.914,245.506 205.664,245.221 206.096,244.652C206.533,244.086 206.75,243.404 206.75,242.605C206.75,242.004 206.666,241.496 206.49,241.09C206.32,240.682 206.051,240.363 205.68,240.137C205.309,239.91 204.826,239.77 204.223,239.707L201.324,239.707L201.324,245.506L203.852,245.506ZM199.326,255.291L199.326,238.088L203.852,238.088C204.73,238.088 205.553,238.223 206.316,238.494C207.082,238.764 207.707,239.236 208.195,239.908C208.686,240.58 208.928,241.48 208.928,242.605C208.928,243.602 208.701,244.375 208.24,244.922C207.781,245.477 207.17,245.91 206.406,246.227C207.494,246.398 208.248,246.828 208.67,247.518C209.092,248.201 209.299,249.1 209.299,250.213C209.299,251.275 209.127,252.18 208.779,252.934C208.428,253.688 207.873,254.268 207.115,254.676C206.355,255.086 205.393,255.291 204.223,255.291L199.326,255.291ZM186.486,253.486L194.463,239.893L186.672,239.893L186.648,238.088L196.619,238.088L196.619,239.893L188.666,253.486L196.805,253.486L196.805,255.291L186.486,255.291L186.486,253.486ZM181.594,255.291L181.594,238.088L183.592,238.088L183.592,255.291L181.594,255.291ZM169.443,248.59L167.264,239.707L165.107,248.59L169.443,248.59ZM161.123,255.291L166.016,238.088L168.725,238.088L173.436,255.291L171.256,255.291L170.002,250.398L164.555,250.398L163.303,255.291L161.123,255.291ZM145.547,255.291L141.93,238.088L144.11,238.088L146.448,249.869L146.823,253.297L147.352,249.869L149.906,238.088L152.244,238.088L154.799,250.398L155.143,253.486L155.518,250.398L158.041,238.088L160.037,238.088L156.422,255.291L153.865,255.291L151.344,242.074L150.969,239.525L150.812,242.074L148.07,255.291L145.547,255.291ZM130.901,246.406C130.901,246.418 130.919,246.941 130.953,247.973C130.983,249.004 131.093,249.959 131.286,250.832C131.476,251.703 131.842,252.455 132.388,253.08C132.936,253.703 133.705,254.016 134.701,254.016C135.722,254.016 136.498,253.74 137.036,253.197C137.573,252.648 137.928,251.963 138.095,251.141C138.261,250.316 138.342,249.375 138.342,248.309C138.342,248.076 138.338,247.748 138.33,247.326C138.321,246.902 138.318,246.596 138.318,246.406C138.318,244.977 138.232,243.775 138.059,242.807C137.886,241.832 137.519,241.043 136.962,240.438C136.406,239.83 135.591,239.525 134.52,239.525C133.565,239.525 132.819,239.861 132.283,240.539C131.742,241.213 131.378,242.057 131.188,243.064C130.994,244.072 130.901,245.189 130.901,246.406ZM128.901,246.41C128.938,245.725 128.981,244.873 129.048,243.861C129.113,242.848 129.308,241.895 129.629,240.998C129.948,240.102 130.514,239.34 131.325,238.717C132.137,238.092 133.265,237.76 134.701,237.717C135.899,237.717 136.893,237.975 137.669,238.494C138.45,239.016 139.04,239.703 139.446,240.557C139.852,241.416 140.131,242.344 140.277,243.344C140.424,244.344 140.498,245.426 140.498,246.596L140.498,247.084C140.498,249.416 140.143,251.426 139.436,253.111C138.728,254.793 137.151,255.635 134.701,255.635C133.191,255.635 132.009,255.268 131.162,254.537C130.312,253.803 129.722,252.771 129.393,251.434C129.063,250.094 128.901,248.42 128.901,246.41ZM118.009,249.869L119.998,249.869C120.01,249.998 120.037,250.453 120.076,251.232C120.114,252.014 120.177,252.559 120.262,252.863C120.347,253.174 120.513,253.408 120.752,253.578C120.996,253.746 121.354,253.83 121.835,253.83C122.274,253.83 122.646,253.775 122.947,253.664C123.245,253.553 123.496,253.301 123.692,252.906C123.89,252.508 123.99,251.912 123.99,251.117L123.99,238.088L125.984,238.088L125.984,249.869C125.984,250.857 125.953,251.678 125.892,252.326C125.83,252.979 125.679,253.559 125.446,254.063C125.211,254.566 124.848,254.963 124.35,255.244C123.854,255.527 123.194,255.666 122.368,255.666L122.001,255.666C120.481,255.666 119.435,255.268 118.855,254.467C118.274,253.672 117.985,252.494 117.985,250.932C117.985,250.453 117.994,250.096 118.009,249.869ZM113.112,248.59L110.934,239.707L108.777,248.59L113.112,248.59ZM104.794,255.291L109.687,238.088L112.394,238.088L117.105,255.291L114.926,255.291L113.673,250.398L108.225,250.398L106.973,255.291L104.794,255.291ZM94.484,245.877L97.564,245.877C98.224,245.877 98.789,245.762 99.252,245.535C99.72,245.307 100.072,244.977 100.312,244.553C100.551,244.127 100.671,243.617 100.671,243.023C100.671,242.984 100.667,242.914 100.66,242.82C100.651,242.725 100.647,242.654 100.647,242.605C100.556,241.627 100.238,240.932 99.685,240.516C99.136,240.102 98.306,239.893 97.192,239.893L94.484,239.893L94.484,245.877ZM92.487,255.291L92.487,238.088L97.564,238.088C98.492,238.088 99.315,238.195 100.033,238.408C100.752,238.621 101.366,239.045 101.88,239.684C102.395,240.32 102.708,241.232 102.828,242.424L102.828,242.748C102.828,243.443 102.664,244.078 102.348,244.643C102.026,245.205 101.617,245.656 101.115,245.992C100.612,246.334 100.096,246.535 99.558,246.596C99.751,246.635 99.995,246.688 100.28,246.75C100.57,246.813 100.845,246.908 101.107,247.041C101.37,247.168 101.609,247.377 101.822,247.664C102.039,247.949 102.189,248.32 102.271,248.775C102.336,249.506 102.413,250.355 102.503,251.322C102.595,252.287 102.719,253.104 102.882,253.764C103.043,254.428 103.264,254.758 103.546,254.758L103.546,255.291L101.177,255.291C100.923,254.777 100.768,254.098 100.714,253.25C100.663,252.4 100.601,251.512 100.532,250.576C100.462,249.641 100.238,248.926 99.859,248.432C99.476,247.934 98.832,247.686 97.911,247.686L94.484,247.686L94.484,255.291L92.487,255.291ZM79.43,255.291L79.43,238.088L81.427,238.088L81.427,246.783L87.594,238.088L90.125,238.088L84.515,245.322L90.311,255.291L87.781,255.291L83.232,247.129L81.427,249.309L81.427,255.291L79.43,255.291Z" style="fill:rgb(198,201,201);"/>
            <path d="M150.615,68.656C187.822,85.275 204.145,133.456 206.807,153.711C179.865,169.895 120.526,172.393 93.981,153.068C94.509,133.854 117.479,81.311 150.615,68.656ZM180.617,170.615L181.59,174.125L183.814,173.498C184.395,173.336 184.818,173.08 185.084,172.74C185.404,172.318 185.471,171.77 185.283,171.098C185.143,170.586 184.861,170.246 184.439,170.082C183.908,169.867 183.143,169.904 182.141,170.186L180.617,170.615ZM156.746,174.598L157.064,177.838L159.293,177.617C160.223,177.523 160.861,177.295 161.203,176.924C161.463,176.639 161.568,176.264 161.523,175.793C161.473,175.264 161.236,174.875 160.818,174.627C160.4,174.379 159.891,174.283 159.291,174.344L156.746,174.598ZM174.449,168.381L181.965,166.262C184.217,165.627 186.033,165.627 187.416,166.264C188.799,166.898 189.744,168.124 190.246,169.934C190.684,171.5 190.574,172.854 189.922,174C189.135,175.391 187.578,176.41 185.254,177.066L182.615,177.811L183.988,182.744L178.848,184.193L174.449,168.381ZM112.438,164.84L117.608,166.271L116.212,171.389L122.168,167.529L128.17,169.188L120.821,173.582L124.482,185.197L118.307,183.49L116.23,176.137L114.661,177.076L113.288,182.104L108.119,180.676L112.438,164.84ZM137.069,170.189L142.399,170.789L140.594,187.109L135.264,186.512L137.069,170.189ZM151.058,171.316L158.916,170.535C161.693,170.26 163.668,170.535 164.84,171.365C165.721,171.996 166.232,173.033 166.377,174.484C166.486,175.602 166.32,176.52 165.883,177.236C165.445,177.949 164.83,178.453 164.043,178.746C165.338,179.121 166.154,179.594 166.502,180.16C166.844,180.729 167.074,181.617 167.195,182.828L167.318,184.096C167.375,184.686 167.459,185.096 167.564,185.33C167.672,185.564 167.828,185.67 168.039,185.648L168.086,186.125L162.727,186.658C162.57,186.293 162.385,185.354 162.166,183.844C161.951,182.33 161.533,181.498 160.91,181.348C160.57,181.275 160.193,181.24 159.785,181.24C159.377,181.242 158.85,181.277 158.203,181.342L157.416,181.418L157.977,187.129L152.663,187.66L151.058,171.316ZM152.413,63.725C189.32,81.262 213.738,133.528 214.584,174.75C179.533,195.842 123.977,198.701 86.095,174.75C87.786,117.457 124.411,73.387 148.329,63.735C150.539,62.843 150.981,63.306 152.413,63.725Z" style="fill:rgb(198,201,201);"/>
            <path d="M151.091,206.477L155.764,196.805L161.984,196.504L156.441,202.111L164.879,195.631L169.957,195.189L168.943,197.479C171.139,195.4 173.607,194.047 175.957,193.756L175.457,195.416C178.926,193.229 182.34,192.041 185.691,192.057L184.258,194.143L186.902,193.896C191.203,188.346 199.551,184.074 216.727,179.137L215.143,181.23L194.297,191.871C198.365,192.211 210.184,185.123 213.963,182.895C208.939,193.723 200.047,198.215 187.287,196.365C180.092,195.783 175.668,196.797 171.045,200.232C179.67,197.641 188.947,197.16 198.008,199.811C186.27,210.105 186.561,212.293 168.027,204.355C159.949,201.271 155.896,204.523 151.091,206.477Z" style="fill:rgb(198,201,201);"/>
            <path d="M146.177,196.963L150.333,204.258L154.506,196.871L150.985,196.91C150.963,197.547 151.371,197.588 151.371,198.24C151.371,198.695 150.972,199.201 150.48,199.201C149.99,199.201 149.592,198.695 149.592,198.24C149.592,197.57 149.955,197.563 149.895,196.918L146.177,196.963Z" style="fill:rgb(198,201,201);"/>
            <path d="M149.536,206.477L144.862,196.805L138.644,196.504L144.188,202.111L135.749,195.633L130.671,195.191L131.684,197.477C129.489,195.4 127.021,194.047 124.669,193.756L125.172,195.416C121.703,193.229 118.288,192.039 114.938,192.057L116.368,194.143L113.726,193.896C109.425,188.346 101.077,184.074 83.901,179.137L85.485,181.23L106.33,191.871C102.262,192.211 90.445,185.121 86.664,182.895C91.688,193.723 100.58,198.213 113.339,196.365C120.535,195.783 124.958,196.797 129.582,200.23C120.957,197.641 111.679,197.16 102.62,199.811C114.358,210.105 114.067,212.293 132.601,204.357C140.679,201.271 144.732,204.523 149.536,206.477Z" style="fill:rgb(198,201,201);"/>
            <path d="M150.018,209.836C143.667,201.916 135.039,202.955 122.533,209.805C131.239,216.35 143.441,215.646 150.018,209.836Z" style="fill:rgb(198,201,201);"/>
            <path d="M182.029,83.075L180.518,81.932C172.18,72.692 162.693,65.14 152.27,60.188C151.939,60.091 151.656,59.991 151.395,59.906L151.325,59.853C157.33,61.175 163.334,63.594 169.338,66.764L153.672,56.557C161.072,58.063 168.473,59.569 175.871,61.078C177.805,72.791 184.045,81.259 195.189,86.492C184.811,79.298 178.176,70.754 178.074,62.101C190.547,66.894 200.902,73.92 200.055,82.216C199.061,93.963 201.295,99.507 207.145,103.08L207.381,102.849C200.748,94.483 199.65,86.871 201.932,79.05C209.922,85.913 214.143,91.235 213.111,94.993C210.686,104.616 210.563,114.057 211.885,121.725C206.59,118.486 201.709,114.208 199.619,108.637L204.953,108.117L198.266,107.021C196.971,104.697 195.623,102.413 194.219,100.18L201.764,101.249L192.328,97.253C191.379,95.82 190.406,94.408 189.412,93.019L192.525,91.054L188.176,91.32C186.842,89.518 185.467,87.76 184.061,86.049L190.512,87.338L182.055,83.057C182.045,83.064 182.037,83.069 182.029,83.075ZM218.477,168.42C218.559,158.401 221.334,149.954 229.527,140.855C229.426,151.221 225.666,160.218 218.477,168.42ZM215.201,151.598C217.324,148.311 224.557,142.52 227.141,141.592C223.348,146.691 219.844,152.989 216.629,158.857C216.215,156.447 215.738,154.026 215.201,151.598ZM204.012,118.367L214.896,124.658C211.389,115.213 210.717,105.713 215.646,96.096C224.484,110.26 224.174,113.587 215.516,130.064L215.461,140.356C216.41,131.931 219.066,124.808 224.215,119.586C230.33,131.367 225.947,140.815 214.648,149.201C212.176,138.81 208.59,128.353 204.012,118.367Z" style="fill:rgb(198,201,201);"/>
            <path d="M150.611,209.836C156.961,201.914 165.588,202.955 178.094,209.805C169.387,216.35 157.189,215.646 150.611,209.836Z" style="fill:rgb(198,201,201);"/>
            <path d="M82.637,168.376C82.556,158.36 79.781,149.913 71.586,140.813C71.69,151.179 75.452,160.174 82.637,168.376ZM119.086,83.032L120.598,81.89C128.934,72.648 138.421,65.097 148.846,60.145C149.177,60.048 149.458,59.948 149.721,59.862L149.79,59.81C143.785,61.131 137.781,63.551 131.776,66.722L147.442,56.513C140.042,58.019 132.643,59.526 125.242,61.033C123.311,72.748 117.069,81.215 105.926,86.448C116.306,79.254 122.938,70.711 123.04,62.057C110.569,66.85 100.212,73.877 101.059,82.173C102.054,93.919 99.819,99.463 93.97,103.035L93.734,102.808C100.367,94.44 101.465,86.829 99.181,79.007C91.194,85.869 86.973,91.193 88.002,94.949C90.428,104.572 90.554,114.013 89.23,121.682C94.525,118.442 99.406,114.164 101.497,108.594L96.161,108.073L102.852,106.976C104.146,104.653 105.494,102.37 106.896,100.136L99.352,101.206L108.786,97.209C109.736,95.776 110.708,94.363 111.702,92.975L108.589,91.011L112.939,91.277C114.274,89.475 115.646,87.717 117.056,86.006L110.604,87.294L119.06,83.014C119.068,83.02 119.077,83.027 119.086,83.032ZM97.101,118.323L86.218,124.615C89.724,115.171 90.398,105.668 85.468,96.053C76.63,110.216 76.94,113.544 85.598,130.021L85.653,140.313C84.703,131.889 82.047,124.765 76.9,119.541C70.785,131.325 75.168,140.772 86.464,149.157C88.939,138.766 92.525,128.311 97.101,118.323ZM85.915,151.556C83.79,148.267 76.558,142.476 73.971,141.549C77.766,146.647 81.271,152.945 84.485,158.814C84.899,156.404 85.376,153.982 85.915,151.556Z" style="fill:rgb(198,201,201);"/>
            <path d="M133.879,92.739C133.879,88.418 135.371,84.772 138.37,81.811C141.354,78.834 145.293,77.354 150.199,77.354C157.414,77.354 162.383,79.719 165.121,84.467C166.551,86.939 167.32,90.16 167.412,94.127L159.521,94.127C159.307,91.289 158.814,89.198 158.027,87.855C156.615,85.413 154.137,84.193 150.6,84.193C147.769,84.193 145.616,84.847 144.123,86.175C142.632,87.503 141.894,89.274 141.894,91.488C141.894,92.77 142.17,93.929 142.724,94.953C143.277,95.991 144.123,96.891 145.23,97.654C147.446,99.18 151.399,101.515 157.076,104.675C167.18,110.292 172.227,116.214 172.227,122.487C172.227,126.028 171.15,129.126 168.98,131.783C167.75,133.31 165.658,135.11 162.721,137.2C164.307,138.651 165.537,140.254 166.41,141.979C167.291,143.702 167.719,145.565 167.719,147.565C167.719,151.594 166.135,155.074 162.98,158.005C159.83,160.95 155.582,162.416 150.23,162.416C143.17,162.416 138.231,160.157 135.417,155.624C133.849,153.182 132.895,149.717 132.571,145.244L140.586,145.244C140.831,148.159 141.354,150.312 142.17,151.685C143.6,154.159 146.107,155.395 149.692,155.395C152.03,155.395 153.906,155.074 155.322,154.448C157.969,153.289 159.291,151.105 159.291,147.885C159.291,146.512 158.891,145.229 158.076,144.039C157.6,143.382 156.922,142.696 156.045,141.979C155.568,141.597 153.998,140.497 151.354,138.712C149.8,137.673 148.308,136.667 146.892,135.721L138.879,130.393C135.694,128.287 133.417,126.44 132.063,124.899C129.694,122.243 128.511,119.266 128.511,115.953C128.511,113.086 129.401,110.506 131.171,108.187C132.94,105.881 135.278,103.851 138.155,102.095C136.832,100.89 135.817,99.608 135.094,98.249C134.279,96.509 133.879,94.678 133.879,92.739ZM158.121,133.476C159.891,132.469 161.197,131.461 162.043,130.439C163.535,128.684 164.289,126.501 164.289,123.906C164.289,121.587 163.49,119.603 161.906,117.968C160.906,116.946 158.904,115.526 155.861,113.664L142.755,105.713C140.985,106.659 139.679,107.59 138.832,108.49C137.247,110.153 136.447,112.186 136.447,114.564C136.447,115.848 136.647,116.977 137.032,117.968C137.785,119.786 139.186,121.343 141.217,122.655L158.121,133.476Z" style="fill:rgb(198,201,201);"/>
        </g>
    </g>
</svg>
