<?xml version="1.0" encoding="UTF-8" standalone="no"?>
<!DOCTYPE svg PUBLIC "-//W3C//DTD SVG 1.1//EN" "http://www.w3.org/Graphics/SVG/1.1/DTD/svg11.dtd">
<svg width="100%" height="100%" viewBox="0 0 200 200" version="1.1" xmlns="http://www.w3.org/2000/svg" xmlns:xlink="http://www.w3.org/1999/xlink" xml:space="preserve" xmlns:serif="http://www.serif.com/" style="fill-rule:evenodd;clip-rule:evenodd;stroke-linejoin:round;stroke-miterlimit:2;">
    <g transform="matrix(0.390625,0,0,0.390625,0,-0.00625)">
        <path d="M373.333,512C296.875,512 234.667,449.792 234.667,373.333C234.667,296.875 296.875,234.667 373.333,234.667C449.792,234.667 512,296.875 512,373.333C512,449.792 449.792,512 373.333,512ZM373.333,266.667C314.517,266.667 266.667,314.517 266.667,373.333C266.667,432.149 314.517,480 373.333,480C432.149,480 480,432.149 480,373.333C480,314.517 432.149,266.667 373.333,266.667Z" style="fill:rgb(156,128,78);fill-rule:nonzero;"/>
    </g>
    <g transform="matrix(0.390625,0,0,0.390625,0,-0.00625)">
        <path d="M352,426.667C347.776,426.667 343.68,424.981 340.693,421.973L298.027,379.307C291.776,373.056 291.776,362.923 298.027,356.672C304.277,350.421 314.411,350.421 320.661,356.672L351.253,387.243L414.656,314.795C420.501,308.117 430.592,307.477 437.248,313.28C443.904,319.104 444.565,329.216 438.741,335.851L364.075,421.184C361.131,424.533 356.949,426.517 352.533,426.667L352,426.667Z" style="fill:rgb(156,128,78);fill-rule:nonzero;"/>
    </g>
    <g transform="matrix(0.390625,0,0,0.390625,0,-0.00625)">
        <path d="M181.333,448C180.309,448 179.285,447.915 178.283,447.701C176.491,447.36 0,410.901 0,211.84L0,80C0,73.387 4.053,67.477 10.219,65.088L175.552,1.088C179.264,-0.341 183.381,-0.341 187.093,1.088L352.427,65.088C358.613,67.477 362.667,73.387 362.667,80L362.667,176C362.667,184.832 355.499,192 346.667,192C337.835,192 330.667,184.832 330.667,176L330.667,90.965L181.333,33.173L32,90.965L32,211.84C32,373.845 160.213,410.667 181.589,415.68L181.632,415.68C190.293,413.845 198.72,419.563 200.448,428.245C202.176,436.907 196.544,445.333 187.883,447.061L183.915,447.787C183.061,447.936 182.208,448 181.333,448Z" style="fill:rgb(156,128,78);fill-rule:nonzero;"/>
    </g>
</svg>
