<?xml version="1.0" encoding="UTF-8" standalone="no"?>
<!DOCTYPE svg PUBLIC "-//W3C//DTD SVG 1.1//EN" "http://www.w3.org/Graphics/SVG/1.1/DTD/svg11.dtd">
<svg width="100%" height="100%" viewBox="0 0 200 200" version="1.1" xmlns="http://www.w3.org/2000/svg" xmlns:xlink="http://www.w3.org/1999/xlink" xml:space="preserve" xmlns:serif="http://www.serif.com/" style="fill-rule:evenodd;clip-rule:evenodd;stroke-linejoin:round;stroke-miterlimit:2;">
    <g transform="matrix(0.403226,0,0,0.403226,-3.22581,-3.22581)">
        <path d="M496,8L16,8C11.584,8 8,11.584 8,16L8,496C8,500.424 11.584,504 16,504L496,504C500.416,504 504,500.424 504,496L504,16C504,11.584 500.416,8 496,8ZM56,456L80,456L80,440L56,440L56,408L88.464,408C88.28,409.824 88,411.616 88,413.48L88,472L104,472L104,456L144,456L144,488L56,488L56,456ZM200,232C202.12,232 204.16,231.16 205.656,229.656L216,219.312L226.344,229.656C227.84,231.16 229.88,232 232,232L334.472,232C327.256,271.376 294.976,312 256,312C217.024,312 184.744,271.376 177.528,232L200,232ZM176,216C176,168.816 217.328,152 256,152C294.672,152 336,168.816 336,216L235.312,216L221.656,202.344C218.528,199.216 213.472,199.216 210.344,202.344L196.688,216L176,216ZM232,331.504L232,323.808C239.656,326.424 247.656,328 256,328C264.344,328 272.344,326.424 280,323.808L280,331.504C280,340.704 285.24,348.824 293.168,352.84C284.536,362.408 272.264,368 259.16,368L244.848,368C232.768,368 221.416,363.232 212.944,355.008L213.824,354.792C224.52,352.12 232,342.536 232,331.504ZM195.56,359.352C207.232,374.8 225.336,384 244.84,384L259.152,384C279.376,384 298.12,374.152 309.712,357.672L377.696,374.672C393.736,378.68 405.336,392 407.536,408L368,408L368,400C368,395.576 364.416,392 360,392L152,392C147.584,392 144,395.576 144,400L144,408L104.464,408C106.664,392 118.264,378.68 134.304,374.672L195.56,359.352ZM408,440L368,440L368,424L408,424L408,440ZM104,424L144,424L144,440L104,440L104,424ZM352,488L160,488L160,408L352,408L352,488ZM488,488L368,488L368,456L408,456L408,472L424,472L424,413.48C424,411.616 423.72,409.824 423.536,408L472,408L472,392L419.552,392C412.904,376.04 399.192,363.552 381.584,359.16L302.064,339.28C298.496,338.376 296,335.184 296,331.504L296,316.4C329.376,296.448 352,254.008 352,216C352,167.4 314.32,136 256,136C197.68,136 160,167.4 160,216C160,254.008 182.624,296.44 216,316.4L216,331.512C216,335.192 213.504,338.376 209.936,339.28L130.424,359.16C112.808,363.56 99.096,376.04 92.448,392L56,392L56,360L112,360L112,344L56,344L56,312L176,312L176,296L56,296L56,264L152,264L152,248L56,248L56,216L152,216L152,200L56,200L56,168L152,168L152,152L56,152L56,120L472,120L472,104L56,104L56,72L472,72L472,56L56,56L56,40L40,40L40,488L24,488L24,24L488,24L488,488Z" style="fill:rgb(156,128,78);fill-rule:nonzero;"/>
    </g>
    <g transform="matrix(0.403226,0,0,0.403226,-3.22581,-3.22581)">
        <path d="M192,480L224,480L224,464L200,464L200,456L216,456C220.416,456 224,452.424 224,448L224,424C224,419.576 220.416,416 216,416L184,416L184,432L208,432L208,440L192,440C187.584,440 184,443.576 184,448L184,472C184,476.424 187.584,480 192,480Z" style="fill:rgb(156,128,78);fill-rule:nonzero;"/>
    </g>
    <g transform="matrix(0.403226,0,0,0.403226,-3.22581,-3.22581)">
        <path d="M240,480L272,480L272,464L248,464L248,456L264,456C268.416,456 272,452.424 272,448L272,424C272,419.576 268.416,416 264,416L232,416L232,432L256,432L256,440L240,440C235.584,440 232,443.576 232,448L232,472C232,476.424 235.584,480 240,480Z" style="fill:rgb(156,128,78);fill-rule:nonzero;"/>
    </g>
    <g transform="matrix(0.403226,0,0,0.403226,-3.22581,-3.22581)">
        <path d="M288,480L320,480L320,464L296,464L296,456L312,456C316.416,456 320,452.424 320,448L320,424C320,419.576 316.416,416 312,416L280,416L280,432L304,432L304,440L288,440C283.584,440 280,443.576 280,448L280,472C280,476.424 283.584,480 288,480Z" style="fill:rgb(156,128,78);fill-rule:nonzero;"/>
    </g>
    <g transform="matrix(0.403226,0,0,0.403226,-3.22581,-3.22581)">
        <rect x="360" y="152" width="112" height="16" style="fill:rgb(156,128,78);fill-rule:nonzero;"/>
    </g>
    <g transform="matrix(0.403226,0,0,0.403226,-3.22581,-3.22581)">
        <rect x="360" y="200" width="112" height="16" style="fill:rgb(156,128,78);fill-rule:nonzero;"/>
    </g>
    <g transform="matrix(0.403226,0,0,0.403226,-3.22581,-3.22581)">
        <rect x="360" y="248" width="112" height="16" style="fill:rgb(156,128,78);fill-rule:nonzero;"/>
    </g>
    <g transform="matrix(0.403226,0,0,0.403226,-3.22581,-3.22581)">
        <rect x="336" y="296" width="136" height="16" style="fill:rgb(156,128,78);fill-rule:nonzero;"/>
    </g>
    <g transform="matrix(0.403226,0,0,0.403226,-3.22581,-3.22581)">
        <rect x="400" y="344" width="72" height="16" style="fill:rgb(156,128,78);fill-rule:nonzero;"/>
    </g>
    <g transform="matrix(0.403226,0,0,0.403226,-3.22581,-3.22581)">
        <rect x="432" y="440" width="40" height="16" style="fill:rgb(156,128,78);fill-rule:nonzero;"/>
    </g>
</svg>
