<?xml version="1.0" encoding="UTF-8" standalone="no"?>
<!DOCTYPE svg PUBLIC "-//W3C//DTD SVG 1.1//EN" "http://www.w3.org/Graphics/SVG/1.1/DTD/svg11.dtd">
<svg width="100%" height="100%" viewBox="0 0 200 200" version="1.1" xmlns="http://www.w3.org/2000/svg" xmlns:xlink="http://www.w3.org/1999/xlink" xml:space="preserve" xmlns:serif="http://www.serif.com/" style="fill-rule:evenodd;clip-rule:evenodd;stroke-linejoin:round;stroke-miterlimit:2;">
    <g id="insurance-clipboard-document-report-security">
    </g>
    <g transform="matrix(0.40121,0,0,0.40121,-3.20968,-3.20968)">
        <g transform="matrix(1.03851,0,0,1.03851,-8.60977,-8.6162)">
            <path d="M120,64L136,64L136,80L152,80L152,64L168,64L168,80L184,80L184,64L200,64L200,80L216,80L216,64L232,64L232,80L248,80L248,64L264,64L264,80L280,80L280,64L296,64L296,80L312,80L312,64L328,64L328,80L344,80L344,64L360,64L360,80L376,80L376,64L392,64L392,368L408,368L408,24C408,19.611 404.389,16 400,16L112,16C107.611,16 104,19.611 104,24L104,80L120,80L120,64ZM120,32L392,32L392,48L120,48L120,32Z" style="fill:rgb(156,128,78);fill-rule:nonzero;"/>
        </g>
        <g transform="matrix(1.03851,0,0,1.03851,-8.60977,-8.6162)">
            <path d="M312,104C312,99.611 308.389,96 304,96L272,96C267.611,96 264,99.611 264,104L264,168C264,172.389 267.611,176 272,176L304,176C308.389,176 312,172.389 312,168L312,104ZM296,112L296,128L280,128L280,112L296,112ZM280,160L280,144L296,144L296,160L280,160Z" style="fill:rgb(156,128,78);fill-rule:nonzero;"/>
        </g>
        <g transform="matrix(1.03851,0,0,1.03851,-8.60977,-8.6162)">
            <path d="M376,104C376,99.611 372.389,96 368,96L336,96C331.611,96 328,99.611 328,104L328,168C328,172.389 331.611,176 336,176L368,176C372.389,176 376,172.389 376,168L376,104ZM360,112L360,128L344,128L344,112L360,112ZM344,160L344,144L360,144L360,160L344,160Z" style="fill:rgb(156,128,78);fill-rule:nonzero;"/>
        </g>
        <g transform="matrix(1.03851,0,0,1.03851,-8.60977,-8.6162)">
            <path d="M248,104C248,99.611 244.389,96 240,96L208,96C203.611,96 200,99.611 200,104L200,168C200,172.389 203.611,176 208,176L240,176C244.389,176 248,172.389 248,168L248,104ZM232,112L232,128L216,128L216,112L232,112ZM216,160L216,144L232,144L232,160L216,160Z" style="fill:rgb(156,128,78);fill-rule:nonzero;"/>
        </g>
        <g transform="matrix(1.03851,0,0,1.03851,-8.60977,-8.6162)">
            <path d="M184,104C184,99.611 180.389,96 176,96L144,96C139.611,96 136,99.611 136,104L136,168C136,172.389 139.611,176 144,176L176,176C180.389,176 184,172.389 184,168L184,104ZM168,112L168,128L152,128L152,112L168,112ZM152,160L152,144L168,144L168,160L152,160Z" style="fill:rgb(156,128,78);fill-rule:nonzero;"/>
        </g>
        <g transform="matrix(1.03851,0,0,1.03851,-8.60977,-8.6162)">
            <path d="M312,200C312,195.611 308.389,192 304,192L272,192C267.611,192 264,195.611 264,200L264,264C264,268.389 267.611,272 272,272L304,272C308.389,272 312,268.389 312,264L312,200ZM296,208L296,224L280,224L280,208L296,208ZM280,256L280,240L296,240L296,256L280,256Z" style="fill:rgb(156,128,78);fill-rule:nonzero;"/>
        </g>
        <g transform="matrix(1.03851,0,0,1.03851,-8.60977,-8.6162)">
            <path d="M376,200C376,195.611 372.389,192 368,192L336,192C331.611,192 328,195.611 328,200L328,264C328,268.389 331.611,272 336,272L368,272C372.389,272 376,268.389 376,264L376,200ZM360,208L360,224L344,224L344,208L360,208ZM344,256L344,240L360,240L360,256L344,256Z" style="fill:rgb(156,128,78);fill-rule:nonzero;"/>
        </g>
        <g transform="matrix(1.03851,0,0,1.03851,-8.60977,-8.6162)">
            <path d="M248,200C248,195.611 244.389,192 240,192L208,192C203.611,192 200,195.611 200,200L200,264C200,268.389 203.611,272 208,272L240,272C244.389,272 248,268.389 248,264L248,200ZM232,208L232,224L216,224L216,208L232,208ZM216,256L216,240L232,240L232,256L216,256Z" style="fill:rgb(156,128,78);fill-rule:nonzero;"/>
        </g>
        <g transform="matrix(1.03851,0,0,1.03851,-8.60977,-8.6162)">
            <path d="M184,200C184,195.611 180.389,192 176,192L144,192C139.611,192 136,195.611 136,200L136,264C136,268.389 139.611,272 144,272L176,272C180.389,272 184,268.389 184,264L184,200ZM168,208L168,224L152,224L152,208L168,208ZM152,256L152,240L168,240L168,256L152,256Z" style="fill:rgb(156,128,78);fill-rule:nonzero;"/>
        </g>
        <g transform="matrix(1.03851,0,0,1.03851,-8.60977,-8.6162)">
            <path d="M304,288L272,288C267.611,288 264,291.611 264,296L264,360C264,364.389 267.611,368 272,368L304,368C308.389,368 312,364.389 312,360L312,296C312,291.611 308.389,288 304,288ZM296,304L296,320L280,320L280,304L296,304ZM280,352L280,336L296,336L296,352L280,352Z" style="fill:rgb(156,128,78);fill-rule:nonzero;"/>
        </g>
        <g transform="matrix(1.03851,0,0,1.03851,-8.60977,-8.6162)">
            <path d="M368,288L336,288C331.611,288 328,291.611 328,296L328,360C328,364.389 331.611,368 336,368L368,368C372.389,368 376,364.389 376,360L376,296C376,291.611 372.389,288 368,288ZM360,304L360,320L344,320L344,304L360,304ZM344,352L344,336L360,336L360,352L344,352Z" style="fill:rgb(156,128,78);fill-rule:nonzero;"/>
        </g>
        <g transform="matrix(1.03851,0,0,1.03851,-8.60977,-8.6162)">
            <path d="M240,288L208,288C203.611,288 200,291.611 200,296L200,360C200,364.389 203.611,368 208,368L240,368C244.389,368 248,364.389 248,360L248,296C248,291.611 244.389,288 240,288ZM232,304L232,320L216,320L216,304L232,304ZM216,352L216,336L232,336L232,352L216,352Z" style="fill:rgb(156,128,78);fill-rule:nonzero;"/>
        </g>
        <g transform="matrix(1.03851,0,0,1.03851,-8.60977,-8.6162)">
            <path d="M176,288L144,288C139.611,288 136,291.611 136,296L136,360C136,364.389 139.611,368 144,368L176,368C180.389,368 184,364.389 184,360L184,296C184,291.611 180.389,288 176,288ZM168,304L168,320L152,320L152,304L168,304ZM152,352L152,336L168,336L168,352L152,352Z" style="fill:rgb(156,128,78);fill-rule:nonzero;"/>
        </g>
        <g transform="matrix(1.03851,0,0,1.03851,-8.60977,-8.6162)">
            <path d="M468,460.151C474.109,458.739 479.737,455.733 484.308,451.441C496.371,440.097 499.454,421.989 491.826,407.292C488.483,401.13 487.301,394.021 488.469,387.109C489.045,384.077 489.154,380.974 488.792,377.909C487.226,364.534 476.652,353.868 463.292,352.187C455.144,351.273 446.98,353.874 440.862,359.332C434.579,364.971 430.989,373.031 431,381.474C430.999,383.564 431.217,385.649 431.649,387.694C432.929,393.738 431.758,400.579 428.349,406.955C424.948,413.345 423.488,420.592 424.149,427.801C425.565,443.383 436.799,456.423 452,460.128L452,480L424,480L424,456C424,451.611 420.389,448 416,448L408,448L408,384L392,384L392,448L376,448L376,392C376,387.611 372.389,384 368,384L336,384C331.611,384 328,387.611 328,392L328,448L312,448L312,392C312,387.611 308.389,384 304,384L208,384C203.611,384 200,387.611 200,392L200,448L184,448L184,392C184,387.611 180.389,384 176,384L144,384C139.611,384 136,387.611 136,392L136,448L120,448L120,96L104,96L104,448L96,448C91.611,448 88,451.611 88,456L88,480L60,480L60,460.151C66.109,458.739 71.737,455.733 76.308,451.441C88.371,440.097 91.454,421.989 83.826,407.292C80.483,401.13 79.301,394.021 80.469,387.109C81.045,384.077 81.154,380.974 80.792,377.909C79.226,364.534 68.652,353.868 55.292,352.187C48.241,351.381 41.135,353.217 35.357,357.337L44.649,370.363C47.207,368.522 50.367,367.708 53.496,368.086C59.51,368.889 64.239,373.73 64.9,379.762C65.073,381.21 65.024,382.676 64.754,384.109C62.914,394.558 64.634,405.328 69.637,414.684C73.951,423.021 72.216,433.281 65.4,439.736C63.808,441.219 61.984,442.43 60,443.322L60,395.79L44,395.79L44,443.313C37.297,440.211 32.745,433.745 32.087,426.388C31.704,422.277 32.53,418.142 34.464,414.494C39.644,404.794 41.364,394.104 39.302,384.379C38.819,382.082 38.917,379.7 39.587,377.451L24.267,372.838C22.822,377.66 22.609,382.769 23.649,387.694C24.929,393.738 23.758,400.579 20.349,406.955C16.948,413.345 15.488,420.592 16.149,427.801C17.565,443.383 28.799,456.423 44,460.128L44,480L16,480L16,496L496,496L496,480L468,480L468,460.151ZM440.087,426.388C439.704,422.277 440.53,418.142 442.464,414.494C447.644,404.794 449.364,394.104 447.302,384.379C447.101,383.424 447.001,382.45 447.002,381.474C446.988,377.585 448.633,373.868 451.521,371.263C453.846,369.161 456.872,367.997 460.007,368C460.504,368 461,368.028 461.493,368.085C467.509,368.887 472.239,373.729 472.9,379.762C473.073,381.21 473.024,382.676 472.754,384.109C470.914,394.558 472.634,405.328 477.637,414.684C481.952,423.021 480.217,433.281 473.401,439.736C471.809,441.219 469.985,442.43 468.001,443.322L468.001,395.79L452,395.79L452,443.313C445.297,440.211 440.745,433.745 440.087,426.388ZM360,400L360,416L344,416L344,400L360,400ZM344,432L360,432L360,448L344,448L344,432ZM296,448L264,448L264,400L296,400L296,448ZM216,400L248,400L248,448L216,448L216,400ZM168,400L168,416L152,416L152,400L168,400ZM152,432L168,432L168,448L152,448L152,432ZM104,480L104,464L200,464L200,480L104,480ZM216,480L216,464L296,464L296,480L216,480ZM312,480L312,464L408,464L408,480L312,480Z" style="fill:rgb(156,128,78);fill-rule:nonzero;"/>
        </g>
    </g>
</svg>
