<?xml version="1.0" encoding="UTF-8" standalone="no"?>
<!DOCTYPE svg PUBLIC "-//W3C//DTD SVG 1.1//EN" "http://www.w3.org/Graphics/SVG/1.1/DTD/svg11.dtd">
<svg width="100%" height="100%" viewBox="0 0 200 200" version="1.1" xmlns="http://www.w3.org/2000/svg" xmlns:xlink="http://www.w3.org/1999/xlink" xml:space="preserve" xmlns:serif="http://www.serif.com/" style="fill-rule:evenodd;clip-rule:evenodd;stroke-linejoin:round;stroke-miterlimit:2;">
    <g id="insurance-clipboard-document-report-security" transform="matrix(0.416667,0,0,0.416605,-6.66666,-6.63595)">
        <path d="M192,40C178.834,40 168,50.834 168,64C168,77.166 178.834,88 192,88C205.166,88 216,77.166 216,64C216,50.834 205.166,40 192,40ZM192,72C187.611,72 184,68.389 184,64C184,59.611 187.611,56 192,56C196.389,56 200,59.611 200,64C200,68.389 196.389,72 192,72Z" style="fill:rgb(156,128,78);fill-rule:nonzero;"/>
        <rect x="88" y="264" width="32" height="16" style="fill:rgb(156,128,78);fill-rule:nonzero;"/>
        <rect x="136" y="264" width="120" height="16" style="fill:rgb(156,128,78);fill-rule:nonzero;"/>
        <rect x="88" y="312" width="32" height="16" style="fill:rgb(156,128,78);fill-rule:nonzero;"/>
        <rect x="88" y="360" width="32" height="16" style="fill:rgb(156,128,78);fill-rule:nonzero;"/>
        <rect x="88" y="408" width="32" height="16" style="fill:rgb(156,128,78);fill-rule:nonzero;"/>
        <path d="M488,280L480,280C454.05,279.935 428.798,271.518 408,256L388.8,241.6C385.973,239.446 382.027,239.446 379.2,241.6L368,250L368,88C367.961,74.849 357.151,64.039 344,64L278.56,64C275.166,54.472 266.115,48.052 256,48L237.28,48C230.537,28.832 212.32,15.929 192,15.929C171.68,15.929 153.463,28.832 146.72,48L128,48C117.885,48.052 108.834,54.472 105.44,64L40,64C26.849,64.039 16.039,74.849 16,88L16,472C16.039,485.151 26.849,495.961 40,496L344,496C351.335,495.953 358.262,492.563 362.8,486.8L380.56,495.2C382.728,496.265 385.272,496.265 387.44,495.2L457.68,461.84C481.258,449.44 496.056,424.88 496,398.24L496,288C496,283.611 492.389,280 488,280ZM280,80L344,80C348.389,80 352,83.611 352,88L352,261.52C346.882,264.712 341.534,267.52 336,269.92L336,104C336,99.611 332.389,96 328,96L280,96L280,80ZM120,72C120,67.611 123.611,64 128,64L152.8,64C156.6,64.039 159.917,61.331 160.64,57.6C163.657,42.742 176.839,31.968 192,31.968C207.161,31.968 220.343,42.742 223.36,57.6C224.083,61.331 227.4,64.039 231.2,64L256,64C260.389,64 264,67.611 264,72L264,104L120,104L120,72ZM112,120L272,120C276.389,120 280,116.389 280,112L320,112L320,275.52C309.584,278.446 298.82,279.953 288,280L280,280C275.611,280 272,283.611 272,288L272,312L136,312L136,328L272,328L272,360L136,360L136,376L272,376L272,398.24C272.011,401.503 272.225,404.763 272.64,408L136,408L136,424L276.88,424C280.331,432.934 285.526,441.093 292.16,448L64,448L64,112L104,112C104,116.389 107.611,120 112,120ZM344,480L40,480C35.611,480 32,476.389 32,472L32,88C32,83.611 35.611,80 40,80L104,80L104,96L56,96C51.611,96 48,99.611 48,104L48,456C48,460.389 51.611,464 56,464L314.88,464L347.04,479.28C346.083,479.716 345.051,479.961 344,480ZM480,398.24C480.06,418.84 468.671,437.852 450.48,447.52L384,479.12L317.68,447.6C299.43,437.932 287.981,418.893 288,398.24L288,296C317.412,295.943 346.036,286.401 369.6,268.8L384,258L398.4,268.8C421.964,286.401 450.588,295.943 480,296L480,398.24Z" style="fill:rgb(156,128,78);fill-rule:nonzero;"/>
        <path d="M240,168L216,168L216,144C216,139.611 212.389,136 208,136L176,136C171.611,136 168,139.611 168,144L168,168L144,168C139.611,168 136,171.611 136,176L136,208C136,212.389 139.611,216 144,216L168,216L168,240C168,244.389 171.611,248 176,248L208,248C212.389,248 216,244.389 216,240L216,216L240,216C244.389,216 248,212.389 248,208L248,176C248,171.611 244.389,168 240,168ZM232,200L208,200C203.611,200 200,203.611 200,208L200,232L184,232L184,208C184,203.611 180.389,200 176,200L152,200L152,184L176,184C180.389,184 184,180.389 184,176L184,152L200,152L200,176C200,180.389 203.611,184 208,184L232,184L232,200Z" style="fill:rgb(156,128,78);fill-rule:nonzero;"/>
        <path d="M457.2,310.24C432.39,306.473 408.892,296.634 388.8,281.6C385.973,279.446 382.027,279.446 379.2,281.6C359.108,296.634 335.61,306.473 310.8,310.24C306.916,310.856 304.022,314.228 304,318.16L304,398.24C304.005,412.762 311.928,426.181 324.64,433.2L325.12,433.44L380.56,459.76C382.728,460.825 385.272,460.825 387.44,459.76L443.36,433.2C456.058,426.165 463.974,412.756 464,398.24L464,318.16C463.978,314.228 461.084,310.856 457.2,310.24ZM448,398.24C448.045,406.798 443.446,414.74 436,418.96L384,443.68L332.16,419.12C324.653,414.862 319.999,406.871 320,398.24L320,324.88C342.976,320.4 364.772,311.192 384,297.84C403.228,311.192 425.024,320.4 448,324.88L448,398.24Z" style="fill:rgb(156,128,78);fill-rule:nonzero;"/>
        <path d="M349.656,378.344L338.344,389.656L362.344,413.656C365.447,416.758 370.553,416.758 373.656,413.656L437.656,349.656L426.344,338.344L368,396.688L349.656,378.344Z" style="fill:rgb(156,128,78);fill-rule:nonzero;"/>
    </g>
</svg>
