<?xml version="1.0" encoding="UTF-8" standalone="no"?>
<!DOCTYPE svg PUBLIC "-//W3C//DTD SVG 1.1//EN" "http://www.w3.org/Graphics/SVG/1.1/DTD/svg11.dtd">
<svg width="100%" height="100%" viewBox="0 0 200 200" version="1.1" xmlns="http://www.w3.org/2000/svg" xmlns:xlink="http://www.w3.org/1999/xlink" xml:space="preserve" xmlns:serif="http://www.serif.com/" style="fill-rule:evenodd;clip-rule:evenodd;stroke-linejoin:round;stroke-miterlimit:2;">
    <g id="insurance-clipboard-document-report-security">
    </g>
    <g transform="matrix(0.40121,0,0,0.40121,-3.20968,-3.20968)">
        <g transform="matrix(1,0,0,1,1.24623,1.24623)">
            <path d="M496,184C500.424,184 504,180.416 504,176L504,48C504,43.584 500.424,40 496,40L488,40L488,16C488,11.584 484.424,8 480,8L32,8C27.576,8 24,11.584 24,16L24,40L16,40C11.576,40 8,43.584 8,48L8,176C8,180.416 11.576,184 16,184L24,184L24,456L16,456C11.576,456 8,459.584 8,464L8,496C8,500.416 11.576,504 16,504L496,504C500.424,504 504,500.416 504,496L504,464C504,459.584 500.424,456 496,456L488,456L488,184L496,184ZM40,24L472,24L472,40L40,40L40,24ZM24,56L488,56L488,168L24,168L24,56ZM472,264L376,264L376,216L472,216L472,264ZM360,264L264,264L264,216L360,216L360,264ZM248,264L152,264L152,216L248,216L248,264ZM136,264L40,264L40,216L136,216L136,264ZM488,488L24,488L24,472L488,472L488,488ZM280,456L264,456L264,336C264,331.584 260.424,328 256,328L96,328C91.576,328 88,331.584 88,336L88,456L72,456L72,312L280,312L280,456ZM104,456L104,344L168,344L168,456L104,456ZM184,344L248,344L248,456L184,456L184,344ZM440,456L344,456L344,312L440,312L440,456ZM456,456L456,304C456,299.584 452.424,296 448,296L336,296C331.576,296 328,299.584 328,304L328,456L296,456L296,304C296,299.584 292.424,296 288,296L64,296C59.576,296 56,299.584 56,304L56,456L40,456L40,280L472,280L472,456L456,456ZM472,200L40,200L40,184L472,184L472,200Z" style="fill:rgb(156,128,78);fill-rule:nonzero;"/>
        </g>
        <path d="M152,72L120,72C115.576,72 112,75.584 112,80L112,144C112,148.416 115.576,152 120,152L152,152C165.232,152 176,141.232 176,128C176,121.856 173.68,116.248 169.872,112C173.68,107.752 176,102.144 176,96C176,82.768 165.232,72 152,72ZM152,136L128,136L128,120L152,120C156.416,120 160,123.592 160,128C160,132.408 156.416,136 152,136ZM152,104L128,104L128,88L152,88C156.416,88 160,91.592 160,96C160,100.408 156.416,104 152,104Z" style="fill:rgb(156,128,78);fill-rule:nonzero;"/>
        <path d="M224,72C206.352,72 192,86.352 192,104L192,152L208,152L208,128L240,128L240,152L256,152L256,104C256,86.352 241.648,72 224,72ZM208,112L208,104C208,95.176 215.176,88 224,88C232.824,88 240,95.176 240,104L240,112L208,112Z" style="fill:rgb(156,128,78);fill-rule:nonzero;"/>
        <path d="M320,120L286.4,75.2C284.336,72.448 280.752,71.32 277.472,72.408C274.2,73.504 272,76.552 272,80L272,152L288,152L288,104L321.6,148.8C323.136,150.848 325.528,152 328,152C328.84,152 329.696,151.864 330.528,151.592C333.8,150.496 336,147.448 336,144L336,72L320,72L320,120Z" style="fill:rgb(156,128,78);fill-rule:nonzero;"/>
        <path d="M400,72L384,72C384,83.344 377.88,93.536 368,98.96L368,72L352,72L352,152L368,152L368,125.04C377.88,130.464 384,140.656 384,152L400,152C400,135.4 391.352,120.448 377.312,112C391.352,103.552 400,88.6 400,72Z" style="fill:rgb(156,128,78);fill-rule:nonzero;"/>
        <path d="M368,392L416,392C420.424,392 424,388.416 424,384L424,336C424,331.584 420.424,328 416,328L368,328C363.576,328 360,331.584 360,336L360,384C360,388.416 363.576,392 368,392ZM376,344L408,344L408,376L376,376L376,344Z" style="fill:rgb(156,128,78);fill-rule:nonzero;"/>
    </g>
</svg>
