<?xml version="1.0" encoding="UTF-8" standalone="no"?>
<!DOCTYPE svg PUBLIC "-//W3C//DTD SVG 1.1//EN" "http://www.w3.org/Graphics/SVG/1.1/DTD/svg11.dtd">
<svg width="100%" height="100%" viewBox="0 0 200 200" version="1.1" xmlns="http://www.w3.org/2000/svg" xmlns:xlink="http://www.w3.org/1999/xlink" xml:space="preserve" xmlns:serif="http://www.serif.com/" style="fill-rule:evenodd;clip-rule:evenodd;stroke-linejoin:round;stroke-miterlimit:2;">
    <g transform="matrix(0.390625,0,0,0.390625,-4.44089e-15,-4.44089e-15)">
        <path d="M504.5,497L333.468,497L333.468,425.963C337.759,427.164 342.275,427.82 346.944,427.82L461.93,427.82C489.538,427.82 511.999,405.359 511.999,377.75C511.999,373.608 508.641,370.25 504.499,370.25L483.807,370.25L424.892,261.097C430.848,255.59 434.586,247.72 434.586,238.991C434.586,224.966 424.944,213.148 411.937,209.808L411.937,89.048L430.559,89.048L430.559,93.238C430.559,102.935 445.559,102.935 445.559,93.238L445.559,89.048L482.558,89.048C508.377,89.048 508.415,48.821 482.558,48.821L445.559,48.821L445.559,41.28C445.559,31.583 430.559,31.583 430.559,41.28L430.559,48.822L411.937,48.822L411.937,41.28C411.937,31.583 396.937,31.583 396.937,41.28L396.937,48.822L334.977,48.822L334.977,33.083C334.977,18.333 322.977,6.333 308.227,6.333C302.113,6.333 296.475,8.399 291.965,11.864C287.159,4.715 278.993,0 269.745,0C260.497,0 252.331,4.715 247.525,11.865C243.015,8.4 237.377,6.334 231.263,6.334C221.207,6.334 212.432,11.914 207.864,20.138C203.567,17.193 198.373,15.466 192.781,15.466C178.031,15.466 166.031,27.466 166.031,42.216L166.031,48.821L115.063,48.821L115.063,41.28C115.063,31.583 100.063,31.583 100.063,41.28L100.063,48.822L81.441,48.822L81.441,41.28C81.441,31.583 66.441,31.583 66.441,41.28L66.441,48.822L29.442,48.822C3.623,48.822 3.585,89.049 29.442,89.049L66.441,89.049L66.441,93.239C66.441,102.936 81.441,102.936 81.441,93.239L81.441,89.049L100.063,89.049L100.063,209.808C87.055,213.148 77.414,224.965 77.414,238.991C77.414,247.72 81.152,255.59 87.109,261.098L28.192,370.25L7.5,370.25C3.358,370.25 0,373.608 0,377.75C0,405.358 22.461,427.819 50.069,427.819L165.055,427.819C169.724,427.819 174.24,427.163 178.531,425.962L178.531,497L7.5,497C3.358,497 0,500.358 0,504.5C0,508.642 3.358,512 7.5,512L504.5,512C508.642,512 512,508.642 512,504.5C512,500.358 508.642,497 504.5,497ZM466.762,370.25L451.681,370.25C447.539,370.25 444.181,373.608 444.181,377.75C444.181,381.892 447.539,385.25 451.681,385.25L479.315,385.25C479.323,385.25 479.331,385.252 479.34,385.252C479.349,385.252 479.358,385.25 479.367,385.25L496.192,385.25C492.749,400.997 478.694,412.819 461.93,412.819L346.944,412.819C330.18,412.819 316.125,400.996 312.682,385.249L329.502,385.249C329.513,385.249 329.523,385.251 329.534,385.251C329.544,385.251 329.553,385.249 329.563,385.249L411.756,385.249L411.756,370.249L342.111,370.249L397.177,268.228C402.016,269.413 406.855,269.413 411.695,268.228L466.762,370.25ZM193.532,269.205L318.469,269.205L318.469,303.796L193.532,303.796L193.532,269.205ZM419.587,238.99C419.587,247.331 412.791,254.117 404.438,254.117C396.085,254.117 389.288,247.331 389.288,238.99C389.288,230.649 396.084,223.863 404.438,223.863C412.792,223.863 419.587,230.649 419.587,238.99ZM396.938,209.807C383.93,213.147 374.288,224.964 374.288,238.99C374.288,247.719 378.026,255.589 383.983,261.097L333.469,354.684L333.469,261.705C333.469,257.563 330.111,254.205 325.969,254.205L319.392,254.205C318.747,239.35 323.521,224.939 334.153,214.32C357.919,190.583 377.863,166.645 377.863,130.965L377.863,100.743C377.863,96.551 376.89,92.583 375.161,89.049L396.939,89.049L396.939,209.807L396.938,209.807ZM482.558,63.822C489.168,63.822 489.168,74.049 482.558,74.049L445.559,74.049L445.559,63.822L482.558,63.822ZM430.559,63.822L430.559,74.049L411.937,74.049L411.937,63.822L430.559,63.822ZM396.938,63.822L396.938,74.049L334.978,74.017L334.978,63.822L396.938,63.822ZM308.227,21.333C314.706,21.333 319.977,26.604 319.977,33.083L319.977,74.016L296.495,74.016L296.495,32.708C296.696,26.403 301.875,21.333 308.227,21.333ZM269.745,15C276.224,15 281.495,20.263 281.495,26.731L281.476,74.321C275.258,75.643 270.579,81.169 270.579,87.771C270.579,94.925 272.493,101.637 275.822,107.441C268.127,112.087 257.995,106.388 257.995,97.405L257.995,26.731C257.995,20.263 263.266,15 269.745,15ZM231.263,21.333C237.616,21.333 242.794,26.403 242.994,32.707L242.994,92.442C242.793,98.746 237.615,103.817 231.263,103.817C224.784,103.817 219.513,98.546 219.513,92.067L219.513,33.083C219.513,26.604 224.784,21.333 231.263,21.333ZM181.031,42.216C181.031,35.737 186.302,30.466 192.781,30.466C199.134,30.466 204.312,35.536 204.512,41.841L204.512,83.311C204.311,89.615 199.133,94.686 192.781,94.686C186.302,94.686 181.031,89.415 181.031,82.936L181.031,42.216ZM166.031,63.822L166.031,74.049L115.063,74.049L115.063,63.822L166.031,63.822ZM29.442,74.048C22.832,74.048 22.832,63.821 29.442,63.821L66.441,63.821L66.441,74.048L29.442,74.048ZM81.441,74.049L81.441,63.822L100.063,63.822L100.063,74.049L81.441,74.049ZM166.031,89.048L166.031,124.083C166.031,128.225 169.389,131.583 173.531,131.583C177.673,131.583 181.031,128.225 181.031,124.083L181.031,106.959C184.58,108.702 188.568,109.685 192.781,109.685C198.373,109.685 203.567,107.958 207.864,105.013C212.432,113.237 221.206,118.817 231.263,118.817C237.587,118.817 243.401,116.607 247.985,112.924C252.842,119.704 260.782,124.135 269.745,124.135C275.538,124.135 281.104,122.261 285.672,118.877C292.451,124.249 301.012,127.469 310.317,127.469L322.318,127.469L322.318,127.634C289.591,131.363 264.086,159.196 264.086,192.868C264.086,197.01 267.444,200.368 271.586,200.368C275.728,200.368 279.086,197.01 279.086,192.868C279.086,164.934 301.844,142.209 329.818,142.209C333.96,142.209 337.318,138.851 337.318,134.709L337.318,119.969C337.318,115.827 333.96,112.469 329.818,112.469L310.317,112.469C297.094,112.469 286.262,102.059 285.61,89.016C307.654,89.016 329.696,89.048 351.739,89.048C357.926,89.377 362.862,94.488 362.862,100.742L362.862,130.964C362.862,162.562 344.404,182.878 323.552,203.706C309.946,217.294 304.211,235.311 304.391,254.205L207.018,254.205C207.57,237.485 201.983,221.974 192.803,208.153C185.101,196.169 181.03,182.309 181.03,168.067C181.03,163.925 177.672,160.567 173.53,160.567C169.388,160.567 166.03,163.925 166.03,168.067C166.03,185.211 170.936,201.895 180.218,216.315C187.678,227.86 192.589,240.279 192.018,254.205L186.031,254.205C181.889,254.205 178.531,257.563 178.531,261.705L178.531,354.684L128.017,261.097C133.974,255.59 137.712,247.719 137.712,238.99C137.712,224.965 128.07,213.147 115.062,209.807L115.062,89.048L166.031,89.048ZM107.563,223.863C115.917,223.863 122.713,230.649 122.713,238.99C122.713,247.331 115.917,254.117 107.563,254.117C99.209,254.117 92.414,247.331 92.414,238.99C92.414,230.649 99.209,223.863 107.563,223.863ZM100.304,268.229C105.143,269.413 109.982,269.413 114.821,268.229L169.888,370.251L45.238,370.251L100.304,268.229ZM50.069,412.82C33.305,412.82 19.25,400.997 15.807,385.251L32.635,385.251C32.643,385.251 32.651,385.252 32.659,385.252C32.666,385.252 32.674,385.251 32.681,385.251L182.443,385.251C182.45,385.251 182.458,385.252 182.465,385.252C182.473,385.252 182.481,385.251 182.489,385.251L199.317,385.251C195.874,400.998 181.819,412.82 165.055,412.82L50.069,412.82ZM193.532,497L193.532,418.9C206.567,409.852 215.125,394.785 215.125,377.75C215.125,373.608 211.767,370.25 207.625,370.25L193.532,370.25L193.532,318.795L318.469,318.795L318.469,370.25L304.376,370.25C300.234,370.25 296.876,373.608 296.876,377.75C296.876,394.785 305.434,409.852 318.469,418.9L318.469,497L193.532,497Z" style="fill:rgb(156,128,78);fill-rule:nonzero;"/>
    </g>
</svg>
