<?xml version="1.0" encoding="UTF-8" standalone="no"?>
<!DOCTYPE svg PUBLIC "-//W3C//DTD SVG 1.1//EN" "http://www.w3.org/Graphics/SVG/1.1/DTD/svg11.dtd">
<svg width="100%" height="100%" viewBox="0 0 200 200" version="1.1" xmlns="http://www.w3.org/2000/svg" xmlns:xlink="http://www.w3.org/1999/xlink" xml:space="preserve" xmlns:serif="http://www.serif.com/" style="fill-rule:evenodd;clip-rule:evenodd;stroke-linejoin:round;stroke-miterlimit:2;">
    <g transform="matrix(0.424952,0,0,0.503746,2.84217e-14,-18.5419)">
        <path d="M425.666,195.738L449.703,192.835C461.639,191.393 470.641,181.239 470.641,169.216C470.641,156.098 459.969,145.425 446.85,145.425L430.106,145.425C419.875,145.425 411.133,151.917 407.78,160.998L384.363,109.738C375.674,90.705 358.311,76.55 337.917,71.875C303.399,63.965 167.243,63.964 132.723,71.875C112.329,76.551 94.967,90.705 86.279,109.736L62.86,160.995C59.506,151.916 50.765,145.426 40.535,145.426L23.791,145.426C10.672,145.425 0,156.098 0,169.216C0,181.239 9.001,191.393 20.938,192.835L44.974,195.738L21.986,218.727C10.811,229.901 5.465,245.914 7.684,261.56L15.547,316.999C17.568,331.248 24.955,343.674 35.459,352.359L35.459,377.538C35.459,392.514 47.643,404.698 62.619,404.698L107.658,404.698C122.634,404.698 134.818,392.514 134.818,377.538L134.818,365.31L335.827,365.31L335.827,377.539C335.827,392.515 348.011,404.699 362.987,404.699L408.015,404.699C422.991,404.699 435.175,392.515 435.175,377.539L435.175,352.363C445.681,343.678 453.07,331.25 455.091,316.999L462.954,261.56C465.173,245.913 459.827,229.901 448.653,218.726L425.666,195.738ZM399.447,347.31L71.193,347.31C53.001,347.31 37.266,334.24 33.735,316.577L436.905,316.577C433.374,334.239 417.639,347.31 399.447,347.31ZM341.352,269.293L350.501,298.577L338.035,298.577L328.886,269.293L341.352,269.293ZM310.028,269.293L319.177,298.577L151.46,298.577L160.609,269.293L310.028,269.293ZM132.602,298.577L120.14,298.577L129.289,269.293L141.751,269.293L132.602,298.577ZM101.282,298.577L31.114,298.577L26.96,269.293L110.43,269.293L101.282,298.577ZM369.358,298.577L360.209,269.293L443.679,269.293L439.525,298.577L369.358,298.577ZM424.315,169.216C424.315,166.023 426.913,163.425 430.106,163.425L446.85,163.425C450.043,163.425 452.641,166.023 452.641,169.216C452.641,172.143 450.45,174.614 447.545,174.965L424.316,177.77L424.316,169.216L424.315,169.216ZM136.744,89.419C168.068,82.241 302.573,82.241 333.895,89.419C341.623,91.191 348.747,94.828 354.72,99.844C311.838,92.414 158.757,92.415 115.918,99.846C121.891,94.829 129.016,91.191 136.744,89.419ZM99.582,123.932C105.147,121.114 111.171,119.069 117.533,117.846C156.057,110.414 314.579,110.413 353.12,117.847C359.474,119.068 365.493,121.112 371.056,123.927L398.875,184.817L71.768,184.817L99.582,123.932ZM18,169.216C18,166.023 20.598,163.425 23.791,163.425L40.535,163.425C43.728,163.425 46.326,166.023 46.326,169.216L46.326,177.771L23.098,174.966C20.191,174.614 18,172.142 18,169.216ZM63.351,202.817L407.289,202.817L435.927,231.455C441.276,236.804 444.546,243.877 445.287,251.293L25.353,251.293C26.094,243.877 29.364,236.804 34.713,231.455L63.351,202.817ZM116.819,377.539C116.819,382.59 112.71,386.699 107.659,386.699L62.62,386.699C57.569,386.699 53.46,382.59 53.46,377.539L53.46,362.401C59.064,364.287 65.033,365.31 71.194,365.31L116.819,365.31L116.819,377.539ZM417.177,377.539C417.177,382.59 413.068,386.699 408.017,386.699L362.989,386.699C357.938,386.699 353.829,382.59 353.829,377.539L353.829,365.31L399.448,365.31C405.608,365.31 411.575,364.288 417.178,362.403L417.178,377.539L417.177,377.539Z" style="fill:rgb(156,128,78);fill-rule:nonzero;"/>
    </g>
</svg>
