<?xml version="1.0" encoding="UTF-8" standalone="no"?>
<!DOCTYPE svg PUBLIC "-//W3C//DTD SVG 1.1//EN" "http://www.w3.org/Graphics/SVG/1.1/DTD/svg11.dtd">
<svg width="100%" height="100%" viewBox="0 0 2500 1000" version="1.1" xmlns="http://www.w3.org/2000/svg" xmlns:xlink="http://www.w3.org/1999/xlink" xml:space="preserve" xmlns:serif="http://www.serif.com/" style="fill-rule:evenodd;clip-rule:evenodd;stroke-linejoin:round;stroke-miterlimit:2;">
    <g transform="matrix(1.70854,0,0,1.70854,20.7113,661.97)">
        <g>
            <path d="M85.459,-115.062L91.406,-115.062L100.215,-79.595L92.544,-77.285C87.711,-87.238 81.286,-95.074 73.268,-100.792C66.677,-105.576 59.373,-107.968 51.355,-107.968C46.522,-107.968 42.183,-107.104 38.339,-105.375C34.495,-103.645 31.611,-101.409 29.689,-98.664C27.767,-95.919 26.806,-93.119 26.806,-90.264C26.806,-87.684 27.549,-85.187 29.035,-82.771C30.521,-80.356 32.778,-78.229 35.804,-76.39C38.831,-74.551 43.783,-72.616 50.662,-70.585L72.184,-64.216C74.823,-63.445 78.657,-61.959 83.686,-59.758C88.715,-57.558 92.631,-55.233 95.434,-52.784C98.237,-50.336 100.436,-47.337 102.03,-43.787C103.624,-40.238 104.422,-36.4 104.422,-32.273C104.422,-23.139 100.421,-15.147 92.42,-8.296C84.42,-1.446 74.068,1.98 61.366,1.98C54.823,1.98 48.966,1.031 43.798,-0.866C38.629,-2.763 33.048,-6.131 27.054,-10.97L23.26,0L17.473,0L9.815,-41.323L17.486,-42.89C20.29,-35.247 24.016,-28.759 28.662,-23.425C33.309,-18.091 38.45,-14.063 44.086,-11.341C49.723,-8.619 55.455,-7.258 61.284,-7.258C69.202,-7.258 76.13,-9.65 82.069,-14.434C87.018,-18.448 89.492,-23.177 89.492,-28.621C89.492,-33.625 87.705,-37.722 84.131,-40.911C80.502,-44.1 74.013,-47.069 64.665,-49.819L44.045,-55.757C32.498,-59.112 24.36,-63.401 19.631,-68.625C14.902,-73.848 12.537,-79.842 12.537,-86.606C12.537,-91.884 14.077,-96.764 17.156,-101.246C20.235,-105.727 24.964,-109.48 31.343,-112.505C37.722,-115.529 44.705,-117.041 52.293,-117.041C58.672,-117.041 64.775,-115.941 70.604,-113.742C74.728,-112.202 78.522,-110.003 81.987,-107.143L85.459,-115.062Z" style="fill:url(#_Linear1);fill-rule:nonzero;"/>
            <path d="M131.723,-115.062L211.812,-115.062L211.812,-108.115L136.645,-8.826L164.29,-8.826C176.834,-8.826 186.393,-10.937 192.968,-15.159C199.542,-19.382 205.411,-27.096 210.575,-38.301L218.163,-35.742L204.884,0L115.886,0L115.886,-6.864L191.216,-106.236L167.289,-106.236C159.258,-106.236 152.905,-105.464 148.229,-103.919C143.554,-102.374 139.456,-99.96 135.935,-96.678C132.415,-93.395 128.729,-88.251 124.879,-81.244L117.784,-84.708L131.723,-115.062Z" style="fill:url(#_Linear2);fill-rule:nonzero;"/>
            <path d="M220.053,-115.062L263.116,-115.062L263.116,-108.133L258.249,-108.133C255.28,-108.133 253.369,-107.856 252.517,-107.301C251.665,-106.747 251.238,-105.832 251.238,-104.557C251.238,-103.448 251.761,-101.951 252.806,-100.065C253.081,-99.622 253.438,-98.985 253.878,-98.153L276.326,-56.59L301.14,-99.72C302.13,-101.497 302.721,-102.649 302.913,-103.177C303.106,-103.704 303.202,-104.246 303.202,-104.802C303.202,-105.579 302.996,-106.232 302.583,-106.759C302.171,-107.287 301.525,-107.689 300.645,-107.967C300.095,-108.078 298.555,-108.133 296.026,-108.133L291.737,-108.133L291.737,-115.062L327.331,-115.062L327.331,-108.133C324.197,-108.188 321.874,-107.993 320.362,-107.548C318.85,-107.103 317.612,-106.421 316.65,-105.502C315.688,-104.582 314.327,-102.646 312.567,-99.694L281.344,-47.757L281.344,-18.806C281.344,-14.572 281.688,-11.822 282.375,-10.558C283.063,-9.293 284.149,-8.372 285.633,-7.794C287.118,-7.217 290.582,-6.928 296.026,-6.928L296.026,0L251.074,0L251.074,-6.928L254.538,-6.928C258.222,-6.928 260.683,-7.258 261.92,-7.918C263.157,-8.578 264.133,-9.65 264.848,-11.135C265.343,-12.18 265.59,-14.737 265.59,-18.806L265.598,-44.705L235.147,-98.809C232.727,-103.193 230.707,-105.816 229.084,-106.676C227.462,-107.537 224.452,-108.022 220.053,-108.133L220.053,-115.062Z" style="fill:url(#_Linear3);fill-rule:nonzero;"/>
            <path d="M335.699,-115.062L372.045,-115.062L406.015,-23.92L439.196,-115.062L474.268,-115.062L474.268,-108.133L471.299,-108.133C467.725,-108.133 465.319,-107.829 464.082,-107.219C462.845,-106.61 461.869,-105.544 461.154,-104.021C460.439,-102.498 460.082,-99.992 460.082,-96.503L460.082,-20.62C460.082,-15.836 460.37,-12.73 460.948,-11.3C461.525,-9.87 462.487,-8.784 463.834,-8.042C465.182,-7.3 467.67,-6.928 471.299,-6.928L474.268,-6.928L474.268,0L430.306,0L430.306,-6.928L433.44,-6.928C436.244,-6.928 438.293,-7.148 439.585,-7.588C440.877,-8.028 441.949,-8.757 442.802,-9.774C443.654,-10.791 444.135,-11.85 444.245,-12.95C444.52,-15.204 444.657,-16.964 444.657,-18.228L444.657,-102.937L407.079,0L398.836,0L361.021,-101.452L361.021,-19.961C361.021,-15.81 361.379,-13.001 362.094,-11.535C362.808,-10.069 363.922,-8.935 365.434,-8.132C366.946,-7.33 369.654,-6.928 373.558,-6.928L376.198,-6.928L376.198,0L335.699,0L335.699,-6.928L338.009,-6.928C341.913,-6.928 344.704,-7.341 346.381,-8.166C348.058,-8.99 349.254,-10.159 349.969,-11.671C350.684,-13.183 351.041,-16.166 351.041,-20.62L351.041,-95.761C351.041,-99.968 350.739,-102.75 350.134,-104.106C349.529,-105.463 348.525,-106.473 347.123,-107.137C345.721,-107.801 343.233,-108.133 339.659,-108.133L335.699,-108.133L335.699,-115.062Z" style="fill:url(#_Linear4);fill-rule:nonzero;"/>
            <path d="M552.338,-117.041C562.849,-117.041 572.34,-114.512 580.814,-109.453C590.004,-104.009 597.061,-96.943 601.986,-88.255C606.911,-79.567 609.373,-69.504 609.373,-58.067C609.373,-40.361 603.87,-25.927 592.865,-14.764C581.86,-3.602 567.828,1.98 550.77,1.98C531.731,1.98 516.654,-4.729 505.538,-18.146C496.459,-29.088 491.919,-42.176 491.919,-57.407C491.919,-68.735 494.478,-78.894 499.595,-87.884C504.713,-96.874 511.976,-103.982 521.386,-109.205C530.796,-114.429 541.113,-117.041 552.338,-117.041ZM552.3,-108.133C543.704,-108.133 536.32,-106.167 530.149,-102.236C523.978,-98.304 519.033,-92.517 515.314,-84.873C511.595,-77.23 509.735,-67.8 509.735,-56.582C509.735,-45.86 511.567,-36.773 515.231,-29.322C518.895,-21.871 523.813,-16.166 529.984,-12.207C536.155,-8.248 543.097,-6.269 550.811,-6.269C558.47,-6.269 565.247,-8.207 571.143,-12.084C577.038,-15.96 581.915,-22.064 585.772,-30.394C589.628,-38.725 591.557,-47.977 591.557,-58.149C591.557,-68.487 589.628,-77.945 585.772,-86.523C582.465,-93.891 578.085,-99.335 572.631,-102.854C567.176,-106.374 560.399,-108.133 552.3,-108.133Z" style="fill:url(#_Linear5);fill-rule:nonzero;"/>
            <path d="M625.622,-115.062L660.886,-115.062L713.217,-28.786L713.217,-94.441C713.217,-98.369 712.832,-101.191 712.062,-102.906C711.292,-104.621 710.138,-105.921 708.598,-106.806C707.058,-107.691 704.776,-108.133 701.752,-108.133L698.783,-108.133L698.783,-115.062L737.219,-115.062L737.219,-108.133L735.169,-108.133C731.78,-108.133 729.484,-107.857 728.282,-107.303C726.586,-106.529 725.315,-105.119 724.468,-103.072C723.621,-101.025 723.197,-98.148 723.197,-94.441L723.197,0L713.217,0L650.119,-103.679L650.119,-21.528C650.119,-16.964 650.256,-14.187 650.531,-13.197C650.916,-11.932 651.617,-10.778 652.634,-9.733C653.652,-8.688 654.848,-7.973 656.222,-7.588C657.597,-7.203 660.374,-6.983 664.553,-6.928L664.553,0L625.622,0L625.622,-6.928L627.684,-6.928C631.643,-6.928 634.324,-7.313 635.726,-8.083C637.128,-8.853 638.214,-10.173 638.984,-12.042C639.754,-13.912 640.138,-17.074 640.138,-21.528L640.138,-94.441C640.138,-99.033 640.029,-101.826 639.809,-102.822C639.314,-104.703 638.365,-106.058 636.963,-106.888C635.561,-107.718 632.77,-108.133 628.591,-108.133L625.622,-108.133L625.622,-115.062Z" style="fill:url(#_Linear6);fill-rule:nonzero;"/>
            <path d="M799.431,-115.062L840.674,-115.062L840.674,-108.133L836.303,-108.133C833.443,-108.133 831.491,-107.856 830.446,-107.302C828.852,-106.415 828.054,-105.086 828.054,-103.313C828.054,-102.038 828.494,-100.016 829.374,-97.246L852.982,-20.538L873.491,-83.72L868.653,-98.813C867.499,-102.475 865.739,-105.11 863.375,-106.718C861.945,-107.661 859.443,-108.133 855.869,-108.133L855.869,-115.062L896.78,-115.062L896.78,-108.133L892.903,-108.133C889.549,-108.133 887.294,-107.718 886.139,-106.886C884.985,-106.055 884.407,-104.919 884.407,-103.479C884.407,-102.26 884.847,-100.182 885.727,-97.246L909.399,-20.043L933.257,-97.246C934.082,-99.961 934.494,-102.011 934.494,-103.396C934.494,-105.002 933.944,-106.194 932.845,-106.969C931.745,-107.745 929.573,-108.133 926.328,-108.133L922.204,-108.133L922.204,-115.062L957.339,-115.062L957.339,-108.133C954.37,-108.188 952.156,-107.897 950.699,-107.261C949.242,-106.624 948.046,-105.71 947.111,-104.519C946.176,-103.329 945.159,-100.905 944.059,-97.249L912.283,0L900.326,0L878.195,-69.043L855.869,0L843.985,0L812.793,-97.248C811.308,-101.957 809.466,-105.059 807.267,-106.554C805.617,-107.607 803.005,-108.133 799.431,-108.133L799.431,-115.062Z" style="fill:url(#_Linear7);fill-rule:nonzero;"/>
            <path d="M1010.19,-115.062L1023.68,-115.062L1059.49,-18.868C1061.25,-14.037 1063.02,-10.84 1064.81,-9.275C1066.6,-7.711 1069,-6.928 1072.03,-6.928L1073.84,-6.928L1073.84,0L1032.89,0L1032.89,-6.928C1034.21,-7.038 1035.51,-7.093 1036.77,-7.093C1039.41,-7.093 1041.14,-7.368 1041.97,-7.918C1043.56,-8.963 1044.36,-10.283 1044.36,-11.877C1044.36,-13.032 1043.59,-15.864 1042.05,-20.373L1034.43,-42.643L992.749,-42.643L983.774,-17.734C982.839,-15.149 982.372,-13.362 982.372,-12.372C982.372,-11.272 982.661,-10.31 983.238,-9.485C983.815,-8.661 984.599,-8.042 985.589,-7.63C986.579,-7.217 988.173,-7.011 990.373,-7.011C991.857,-7.011 993.067,-6.983 994.002,-6.928L994.002,0L959.606,0L959.606,-6.928C962.795,-6.928 965.091,-7.245 966.493,-7.877C967.895,-8.509 969.119,-9.527 970.164,-10.929C971.208,-12.331 972.583,-15.286 974.288,-19.794L1010.19,-115.062ZM995.662,-50.726L1031.19,-50.726L1013.49,-100.215L995.662,-50.726ZM1056.42,0C1054.33,1.54 1052.55,3.492 1051.06,5.856C1050.07,7.451 1049.58,9.073 1049.58,10.723C1049.58,12.702 1050.26,14.366 1051.64,15.713C1053.01,17.06 1054.63,17.734 1056.51,17.734C1058.21,17.734 1060.19,17.211 1062.44,16.166C1064.7,15.122 1066.87,13.582 1068.96,11.547L1071.68,15.094C1067.83,18.448 1064.72,20.703 1062.36,21.858C1058.79,23.617 1055.49,24.497 1052.46,24.497C1049.38,24.497 1046.81,23.425 1044.75,21.28C1042.69,19.136 1041.66,16.524 1041.66,13.444C1041.66,10.97 1042.57,8.331 1044.38,5.526C1045.64,3.602 1047.57,1.76 1050.15,0L1056.42,0Z" style="fill:url(#_Linear8);fill-rule:nonzero;"/>
            <path d="M1159.78,-115.062L1165.73,-115.062L1174.54,-79.595L1166.87,-77.285C1162.03,-87.238 1155.61,-95.074 1147.59,-100.792C1141,-105.576 1133.69,-107.968 1125.68,-107.968C1120.84,-107.968 1116.5,-107.104 1112.66,-105.375C1108.82,-103.645 1105.93,-101.409 1104.01,-98.664C1102.09,-95.919 1101.13,-93.119 1101.13,-90.264C1101.13,-87.684 1101.87,-85.187 1103.36,-82.771C1104.84,-80.356 1107.1,-78.229 1110.13,-76.39C1113.15,-74.551 1118.1,-72.616 1124.98,-70.585L1146.51,-64.216C1149.14,-63.445 1152.98,-61.959 1158.01,-59.758C1163.04,-57.558 1166.95,-55.233 1169.76,-52.784C1172.56,-50.336 1174.76,-47.337 1176.35,-43.787C1177.94,-40.238 1178.74,-36.4 1178.74,-32.273C1178.74,-23.139 1174.74,-15.147 1166.74,-8.296C1158.74,-1.446 1148.39,1.98 1135.69,1.98C1129.14,1.98 1123.29,1.031 1118.12,-0.866C1112.95,-2.763 1107.37,-6.131 1101.38,-10.97L1097.58,0L1091.79,0L1084.14,-41.323L1091.81,-42.89C1094.61,-35.247 1098.34,-28.759 1102.98,-23.425C1107.63,-18.091 1112.77,-14.063 1118.41,-11.341C1124.04,-8.619 1129.78,-7.258 1135.61,-7.258C1143.52,-7.258 1150.45,-9.65 1156.39,-14.434C1161.34,-18.448 1163.81,-23.177 1163.81,-28.621C1163.81,-33.625 1162.03,-37.722 1158.45,-40.911C1154.82,-44.1 1148.33,-47.069 1138.99,-49.819L1118.37,-55.757C1106.82,-59.112 1098.68,-63.401 1093.95,-68.625C1089.22,-73.848 1086.86,-79.842 1086.86,-86.606C1086.86,-91.884 1088.4,-96.764 1091.48,-101.246C1094.56,-105.727 1099.29,-109.48 1105.66,-112.505C1112.04,-115.529 1119.03,-117.041 1126.61,-117.041C1132.99,-117.041 1139.1,-115.941 1144.92,-113.742C1149.05,-112.202 1152.84,-110.003 1156.31,-107.143L1159.78,-115.062Z" style="fill:url(#_Linear9);fill-rule:nonzero;"/>
            <path d="M1193.92,-115.062L1287.45,-115.062L1298.26,-84.791L1291,-82.069C1289.18,-87.018 1287.2,-90.908 1285.05,-93.74C1282.91,-96.572 1280.33,-98.978 1277.33,-100.957C1274.33,-102.937 1271.3,-104.257 1268.25,-104.916C1265.19,-105.576 1259.67,-105.906 1251.69,-105.906L1223.78,-105.906L1223.78,-63.758L1237.67,-63.758C1242.8,-63.758 1246.67,-64.624 1249.29,-66.356C1251.91,-68.088 1253.71,-70.247 1254.7,-72.831C1255.48,-74.756 1255.86,-78.11 1255.86,-82.894L1255.86,-84.791L1263.95,-84.791L1263.95,-34.312L1255.86,-34.312L1255.86,-38.684C1255.86,-42.533 1255.57,-45.31 1254.99,-47.014C1254.42,-48.719 1253.36,-50.327 1251.81,-51.84C1250.27,-53.352 1248.6,-54.383 1246.81,-54.933C1245.02,-55.483 1241.97,-55.757 1237.67,-55.757L1223.78,-55.757L1223.78,-18.377C1223.78,-14.479 1223.96,-12.105 1224.31,-11.254C1224.67,-10.403 1225.26,-9.786 1226.09,-9.402C1226.92,-9.018 1229.17,-8.826 1232.86,-8.826L1250.13,-8.826C1259.76,-8.826 1267.29,-9.98 1272.72,-12.29C1278.14,-14.599 1282.92,-18.137 1287.04,-22.904C1290.29,-26.629 1293.39,-31.889 1296.36,-38.684L1303.87,-36.044L1291,0L1193.92,0L1193.92,-6.928L1197.22,-6.928C1201.07,-6.928 1203.46,-7.174 1204.39,-7.666C1205.82,-8.375 1206.92,-9.521 1207.69,-11.104C1208.24,-12.196 1208.52,-14.571 1208.52,-18.228L1208.52,-97.493C1208.52,-101.096 1208.16,-103.506 1207.45,-104.726C1206.73,-105.945 1205.49,-106.887 1203.73,-107.552C1202.8,-107.939 1199.53,-108.133 1193.92,-108.133L1193.92,-115.062Z" style="fill:url(#_Linear10);fill-rule:nonzero;"/>
            <path d="M1315.99,-115.062L1360.45,-115.062L1360.45,-108.133L1357.32,-108.133C1353.68,-108.133 1351.13,-107.693 1349.64,-106.813C1348.16,-105.934 1347.11,-104.559 1346.51,-102.689C1346.02,-101.315 1345.77,-99.06 1345.77,-95.926L1345.77,-52.255L1389.02,-98.081C1391.27,-100.538 1392.61,-102.13 1393.02,-102.856C1393.43,-103.582 1393.64,-104.336 1393.64,-105.117C1393.64,-106.123 1393.16,-106.877 1392.19,-107.379C1391.23,-107.882 1389.16,-108.133 1385.97,-108.133L1383.33,-108.133L1383.33,-115.062L1424.48,-115.062L1424.48,-108.133C1421.24,-108.188 1418.3,-107.828 1415.66,-107.052C1413.02,-106.276 1410.93,-105.306 1409.39,-104.141C1406.03,-101.645 1403.64,-99.65 1402.21,-98.153L1371.35,-66.624L1406.58,-19.878C1409.77,-15.644 1412.3,-12.743 1414.17,-11.176C1416.04,-9.609 1417.96,-8.509 1419.94,-7.877C1421.92,-7.245 1425,-6.928 1429.18,-6.928L1429.18,0L1380.31,0L1380.31,-6.928L1383.19,-6.928C1386.44,-6.928 1388.36,-7.01 1388.97,-7.175C1389.9,-7.394 1390.64,-7.832 1391.19,-8.49C1391.74,-9.147 1392.02,-9.832 1392.02,-10.545C1392.02,-11.969 1390.12,-15.229 1386.33,-20.325L1360.5,-55.547L1345.77,-40.498L1345.77,-18.476C1345.77,-14.682 1346.15,-12.097 1346.92,-10.723C1347.69,-9.348 1348.87,-8.331 1350.47,-7.671C1351.73,-7.176 1355.06,-6.928 1360.45,-6.928L1360.45,0L1315.99,0L1315.99,-6.928L1319.46,-6.928C1322.92,-6.928 1325.28,-7.274 1326.55,-7.966C1327.81,-8.658 1328.79,-9.806 1329.48,-11.411C1330.16,-13.016 1330.51,-15.866 1330.51,-19.961L1330.51,-95.926C1330.51,-99.94 1330.18,-102.676 1329.52,-104.133C1328.86,-105.59 1327.9,-106.621 1326.63,-107.226C1325.37,-107.831 1322.67,-108.133 1318.55,-108.133L1315.99,-108.133L1315.99,-115.062Z" style="fill:url(#_Linear11);fill-rule:nonzero;"/>
        </g>
    </g>
    <g transform="matrix(1,0,0,1,0,28)">
        <rect x="0" y="730" width="2500" height="11" style="fill:url(#_Linear12);"/>
    </g>
    <g transform="matrix(1.58171,0,0,1.58171,144.04,-512.262)">
        <g transform="matrix(0.632227,0,0,0.632227,-91.066,323.866)">
            <path d="M2059.89,907.106C2053.26,907.106 2047.25,905.623 2041.86,902.658C2036.47,899.692 2032.26,895.627 2029.23,890.461C2026.2,885.296 2024.69,879.492 2024.69,873.051C2024.69,866.61 2026.2,860.807 2029.23,855.641C2032.26,850.476 2036.47,846.41 2041.86,843.445C2047.25,840.48 2053.26,838.997 2059.89,838.997C2066.52,838.997 2072.5,840.464 2077.82,843.397C2083.15,846.331 2087.34,850.396 2090.4,855.594C2093.47,860.791 2095,866.61 2095,873.051C2095,879.492 2093.47,885.312 2090.4,890.509C2087.34,895.706 2083.15,899.772 2077.82,902.706C2072.5,905.639 2066.52,907.106 2059.89,907.106ZM2003.83,873.051L2010.63,873.051L2010.63,898.592C2007.5,901.334 2003.8,903.439 1999.53,904.906C1995.26,906.372 1990.76,907.106 1986.04,907.106C1979.34,907.106 1973.32,905.639 1967.96,902.706C1962.6,899.772 1958.39,895.706 1955.33,890.509C1952.27,885.312 1950.74,879.492 1950.74,873.051C1950.74,866.61 1952.27,860.791 1955.33,855.594C1958.39,850.396 1962.6,846.331 1967.96,843.397C1973.32,840.464 1979.38,838.997 1986.14,838.997C1991.24,838.997 1995.92,839.81 2000.2,841.436C2004.47,843.062 2008.07,845.47 2011.01,848.658L2006.61,853.154C2001.31,847.925 1994.59,845.31 1986.42,845.31C1981,845.31 1976.11,846.506 1971.74,848.898C1967.37,851.289 1963.94,854.605 1961.46,858.846C1958.97,863.087 1957.73,867.822 1957.73,873.051C1957.73,878.281 1958.97,883 1961.46,887.209C1963.94,891.418 1967.36,894.734 1971.69,897.157C1976.03,899.581 1980.91,900.792 1986.33,900.792C1993.22,900.792 1999.05,899.07 2003.83,895.627L2003.83,873.051ZM667.868,907.106C661.235,907.106 655.257,905.639 649.932,902.706C644.607,899.772 640.43,895.706 637.4,890.509C634.371,885.312 632.857,879.492 632.857,873.051C632.857,866.61 634.371,860.791 637.4,855.594C640.43,850.396 644.623,846.331 649.98,843.397C655.336,840.464 661.331,838.997 667.963,838.997C672.938,838.997 677.529,839.826 681.738,841.484C685.947,843.142 689.519,845.565 692.452,848.754L687.956,853.25C682.727,847.957 676.126,845.31 668.155,845.31C662.862,845.31 658.047,846.522 653.71,848.945C649.374,851.369 645.978,854.685 643.523,858.894C641.067,863.103 639.84,867.822 639.84,873.051C639.84,878.281 641.067,883 643.523,887.209C645.978,891.418 649.374,894.734 653.71,897.157C658.047,899.581 662.862,900.792 668.155,900.792C676.19,900.792 682.791,898.114 687.956,892.757L692.452,897.253C689.519,900.442 685.931,902.881 681.69,904.571C677.45,906.261 672.842,907.106 667.868,907.106ZM1359.29,907.106C1352.66,907.106 1346.68,905.639 1341.35,902.706C1336.03,899.772 1331.85,895.706 1328.82,890.509C1325.79,885.312 1324.28,879.492 1324.28,873.051C1324.28,866.61 1325.79,860.791 1328.82,855.594C1331.85,850.396 1336.04,846.331 1341.4,843.397C1346.76,840.464 1352.75,838.997 1359.38,838.997C1364.36,838.997 1368.95,839.826 1373.16,841.484C1377.37,843.142 1380.94,845.565 1383.87,848.754L1379.38,853.25C1374.15,847.957 1367.55,845.31 1359.58,845.31C1354.28,845.31 1349.47,846.522 1345.13,848.945C1340.79,851.369 1337.4,854.685 1334.94,858.894C1332.49,863.103 1331.26,867.822 1331.26,873.051C1331.26,878.281 1332.49,883 1334.94,887.209C1337.4,891.418 1340.79,894.734 1345.13,897.157C1349.47,899.581 1354.28,900.792 1359.58,900.792C1367.61,900.792 1374.21,898.114 1379.38,892.757L1383.87,897.253C1380.94,900.442 1377.35,902.881 1373.11,904.571C1368.87,906.261 1364.26,907.106 1359.29,907.106ZM475.116,906.532L447.757,875.06L434.078,888.931L434.078,906.532L426.999,906.532L426.999,839.571L434.078,839.571L434.078,880.034L473.394,839.571L481.525,839.571L452.54,869.895L482.354,905.137L512.327,839.571L519.31,839.571L549.921,906.532L542.459,906.532L534.424,888.644L497.117,888.644L489.082,906.532L475.116,906.532ZM965.844,839.571L972.923,839.571L972.923,906.532L965.844,906.532L965.844,839.571ZM771.562,839.571L778.641,839.571L778.641,900.41L816.139,900.41L816.139,906.532L771.562,906.532L771.562,839.571ZM754.917,900.41L754.917,906.532L707.566,906.532L707.566,839.571L753.482,839.571L753.482,845.693L714.645,845.693L714.645,869.512L749.273,869.512L749.273,875.538L714.645,875.538L714.645,900.41L754.917,900.41ZM1940.41,900.41L1940.41,906.532L1893.06,906.532L1893.06,839.571L1938.98,839.571L1938.98,845.693L1900.14,845.693L1900.14,869.512L1934.77,869.512L1934.77,875.538L1900.14,875.538L1900.14,900.41L1940.41,900.41ZM1533.48,839.571C1542.03,839.571 1548.72,841.612 1553.57,845.693C1558.41,849.774 1560.84,855.386 1560.84,862.529C1560.84,869.671 1558.41,875.267 1553.57,879.317C1548.72,883.367 1542.03,885.391 1533.48,885.391L1515.5,885.391L1515.5,906.532L1508.42,906.532L1508.42,839.571L1533.48,839.571ZM942.408,906.532L927.102,885.009C925.38,885.2 923.595,885.296 921.745,885.296L903.762,885.296L903.762,906.532L896.683,906.532L896.683,839.571L921.745,839.571C930.291,839.571 936.987,841.612 941.834,845.693C946.68,849.774 949.104,855.386 949.104,862.529C949.104,867.758 947.78,872.174 945.134,875.778C942.487,879.381 938.709,881.979 933.798,883.574L950.156,906.532L942.408,906.532ZM870.09,888.644L832.783,888.644L824.748,906.532L817.382,906.532L847.993,839.571L854.976,839.571L885.586,906.532L878.125,906.532L870.09,888.644ZM1159.17,906.532L1143.87,885.009C1142.14,885.2 1140.36,885.296 1138.51,885.296L1120.52,885.296L1120.52,906.532L1113.44,906.532L1113.44,839.571L1138.51,839.571C1147.05,839.571 1153.75,841.612 1158.6,845.693C1163.44,849.774 1165.87,855.386 1165.87,862.529C1165.87,867.758 1164.54,872.174 1161.9,875.778C1159.25,879.381 1155.47,881.979 1150.56,883.574L1166.92,906.532L1159.17,906.532ZM1621.87,906.532L1606.56,885.009C1604.84,885.2 1603.06,885.296 1601.21,885.296L1583.22,885.296L1583.22,906.532L1576.14,906.532L1576.14,839.571L1601.21,839.571C1609.75,839.571 1616.45,841.612 1621.29,845.693C1626.14,849.774 1628.56,855.386 1628.56,862.529C1628.56,867.758 1627.24,872.174 1624.59,875.778C1621.95,879.381 1618.17,881.979 1613.26,883.574L1629.62,906.532L1621.87,906.532ZM1687.3,888.644L1649.99,888.644L1641.96,906.532L1634.59,906.532L1665.2,839.571L1672.18,839.571L1702.8,906.532L1695.33,906.532L1687.3,888.644ZM616.977,839.571L616.977,906.532L611.142,906.532L568.096,852.198L568.096,906.532L561.017,906.532L561.017,839.571L566.852,839.571L609.994,893.905L609.994,839.571L616.977,839.571ZM1871.25,839.571L1871.25,906.532L1865.41,906.532L1822.37,852.198L1822.37,906.532L1815.29,906.532L1815.29,839.571L1821.13,839.571L1864.27,893.905L1864.27,839.571L1871.25,839.571ZM1802.38,839.571L1779.8,906.532L1772.34,906.532L1752.73,849.424L1733.02,906.532L1725.66,906.532L1703.08,839.571L1710.35,839.571L1729.67,897.157L1749.67,839.571L1756.27,839.571L1775.97,897.444L1795.58,839.571L1802.38,839.571ZM1420.51,883.382L1420.51,906.532L1413.52,906.532L1413.52,883.382L1386.74,839.571L1394.3,839.571L1417.26,877.165L1440.21,839.571L1447.29,839.571L1420.51,883.382ZM1251.19,839.571L1278.46,839.571C1285.54,839.571 1291.79,840.99 1297.21,843.828C1302.63,846.665 1306.84,850.619 1309.83,855.689C1312.83,860.759 1314.33,866.547 1314.33,873.051C1314.33,879.556 1312.83,885.343 1309.83,890.413C1306.84,895.483 1302.63,899.437 1297.21,902.275C1291.79,905.113 1285.54,906.532 1278.46,906.532L1251.19,906.532L1251.19,839.571ZM1036.73,888.644L999.42,888.644L991.385,906.532L984.019,906.532L1014.63,839.571L1021.61,839.571L1052.22,906.532L1044.76,906.532L1036.73,888.644ZM1224.6,888.644L1187.29,888.644L1179.26,906.532L1171.89,906.532L1202.5,839.571L1209.49,839.571L1240.1,906.532L1232.64,906.532L1224.6,888.644ZM2059.89,900.792C2065.18,900.792 2069.97,899.597 2074.24,897.205C2078.51,894.814 2081.86,891.498 2084.28,887.257C2086.7,883.016 2087.92,878.281 2087.92,873.051C2087.92,867.822 2086.7,863.087 2084.28,858.846C2081.86,854.605 2078.51,851.289 2074.24,848.898C2069.97,846.506 2065.18,845.31 2059.89,845.31C2054.6,845.31 2049.8,846.506 2045.49,848.898C2041.19,851.289 2037.81,854.605 2035.35,858.846C2032.9,863.087 2031.67,867.822 2031.67,873.051C2031.67,878.281 2032.9,883.016 2035.35,887.257C2037.81,891.498 2041.19,894.814 2045.49,897.205C2049.8,899.597 2054.6,900.792 2059.89,900.792ZM1278.07,900.41C1283.94,900.41 1289.08,899.246 1293.48,896.918C1297.88,894.59 1301.29,891.37 1303.71,887.257C1306.13,883.143 1307.35,878.408 1307.35,873.051C1307.35,867.694 1306.13,862.959 1303.71,858.846C1301.29,854.733 1297.88,851.512 1293.48,849.185C1289.08,846.857 1283.94,845.693 1278.07,845.693L1258.27,845.693L1258.27,900.41L1278.07,900.41ZM531.841,882.904L515.771,846.937L499.7,882.904L531.841,882.904ZM867.507,882.904L851.436,846.937L835.366,882.904L867.507,882.904ZM1034.14,882.904L1018.07,846.937L1002,882.904L1034.14,882.904ZM1684.72,882.904L1668.64,846.937L1652.57,882.904L1684.72,882.904ZM1222.02,882.904L1205.95,846.937L1189.88,882.904L1222.02,882.904ZM921.554,879.269C928.186,879.269 933.256,877.802 936.764,874.869C940.271,871.935 942.025,867.822 942.025,862.529C942.025,857.108 940.271,852.947 936.764,850.045C933.256,847.144 928.186,845.693 921.554,845.693L903.762,845.693L903.762,879.269L921.554,879.269ZM1138.32,879.269C1144.95,879.269 1150.02,877.802 1153.53,874.869C1157.03,871.935 1158.79,867.822 1158.79,862.529C1158.79,857.108 1157.03,852.947 1153.53,850.045C1150.02,847.144 1144.95,845.693 1138.32,845.693L1120.52,845.693L1120.52,879.269L1138.32,879.269ZM1601.01,879.269C1607.65,879.269 1612.72,877.802 1616.22,874.869C1619.73,871.935 1621.49,867.822 1621.49,862.529C1621.49,857.108 1619.73,852.947 1616.22,850.045C1612.72,847.144 1607.65,845.693 1601.01,845.693L1583.22,845.693L1583.22,879.269L1601.01,879.269ZM1533.29,879.173C1539.92,879.173 1544.99,877.723 1548.5,874.821C1552.01,871.919 1553.76,867.822 1553.76,862.529C1553.76,857.108 1552.01,852.947 1548.5,850.045C1544.99,847.144 1539.92,845.693 1533.29,845.693L1515.5,845.693L1515.5,879.173L1533.29,879.173Z" style="fill:url(#_Linear13);fill-rule:nonzero;stroke:white;stroke-width:1.39px;"/>
        </g>
        <g transform="matrix(0.632227,0,0,0.632227,-122.362,319.44)">
            <g transform="matrix(1,0,0,1,161,10.4509)">
                <path d="M1284.52,37.52L997,37.52L997,329.069L963,329.069L963,7.549L1284.52,7.549L1284.52,37.52Z" style="fill:url(#_Linear14);"/>
            </g>
            <g transform="matrix(1,0,0,1,125.093,-19.5197)">
                <path d="M1335.17,81.74L1349.91,81.74L1349.91,388.52L1043.13,388.52L1043.13,373.78L1335.17,373.78L1335.17,81.74ZM1335.17,81.74L1320.43,81.74L1320.43,359.039L1043.13,359.039L1043.13,373.78L1028.39,373.78L1028.39,67L1335.17,67L1335.17,81.74ZM1320.43,81.74L1043.13,81.74L1043.13,359.039L1043.13,81.74L1320.43,81.74ZM1259.6,290.483L1229.8,223.711L1195.37,223.711L1242.38,329.069L1259.6,290.483ZM1176.63,196.296L1146.84,263.069L1112.4,263.069L1159.42,157.711L1176.63,196.296ZM1163.25,150.296L1193.05,217.069L1227.48,217.069L1180.47,111.711L1163.25,150.296Z" style="fill:url(#_Linear15);"/>
            </g>
        </g>
    </g>
    <defs>
        <linearGradient id="_Linear1" x1="0" y1="0" x2="1" y2="0" gradientUnits="userSpaceOnUse" gradientTransform="matrix(1441.58,-204.268,204.268,1441.58,109.33,560.195)"><stop offset="0" style="stop-color:white;stop-opacity:1"/><stop offset="1" style="stop-color:rgb(179,179,179);stop-opacity:1"/></linearGradient>
        <linearGradient id="_Linear2" x1="0" y1="0" x2="1" y2="0" gradientUnits="userSpaceOnUse" gradientTransform="matrix(1441.58,-204.268,204.268,1441.58,109.33,560.195)"><stop offset="0" style="stop-color:white;stop-opacity:1"/><stop offset="1" style="stop-color:rgb(179,179,179);stop-opacity:1"/></linearGradient>
        <linearGradient id="_Linear3" x1="0" y1="0" x2="1" y2="0" gradientUnits="userSpaceOnUse" gradientTransform="matrix(1441.58,-204.268,204.268,1441.58,109.33,560.195)"><stop offset="0" style="stop-color:white;stop-opacity:1"/><stop offset="1" style="stop-color:rgb(179,179,179);stop-opacity:1"/></linearGradient>
        <linearGradient id="_Linear4" x1="0" y1="0" x2="1" y2="0" gradientUnits="userSpaceOnUse" gradientTransform="matrix(1441.58,-204.268,204.268,1441.58,109.33,560.195)"><stop offset="0" style="stop-color:white;stop-opacity:1"/><stop offset="1" style="stop-color:rgb(179,179,179);stop-opacity:1"/></linearGradient>
        <linearGradient id="_Linear5" x1="0" y1="0" x2="1" y2="0" gradientUnits="userSpaceOnUse" gradientTransform="matrix(1441.58,-204.268,204.268,1441.58,109.33,560.195)"><stop offset="0" style="stop-color:white;stop-opacity:1"/><stop offset="1" style="stop-color:rgb(179,179,179);stop-opacity:1"/></linearGradient>
        <linearGradient id="_Linear6" x1="0" y1="0" x2="1" y2="0" gradientUnits="userSpaceOnUse" gradientTransform="matrix(1441.58,-204.268,204.268,1441.58,109.33,560.195)"><stop offset="0" style="stop-color:white;stop-opacity:1"/><stop offset="1" style="stop-color:rgb(179,179,179);stop-opacity:1"/></linearGradient>
        <linearGradient id="_Linear7" x1="0" y1="0" x2="1" y2="0" gradientUnits="userSpaceOnUse" gradientTransform="matrix(1441.58,-204.268,204.268,1441.58,109.33,560.195)"><stop offset="0" style="stop-color:white;stop-opacity:1"/><stop offset="1" style="stop-color:rgb(179,179,179);stop-opacity:1"/></linearGradient>
        <linearGradient id="_Linear8" x1="0" y1="0" x2="1" y2="0" gradientUnits="userSpaceOnUse" gradientTransform="matrix(1441.58,-204.268,204.268,1441.58,109.33,560.195)"><stop offset="0" style="stop-color:white;stop-opacity:1"/><stop offset="1" style="stop-color:rgb(179,179,179);stop-opacity:1"/></linearGradient>
        <linearGradient id="_Linear9" x1="0" y1="0" x2="1" y2="0" gradientUnits="userSpaceOnUse" gradientTransform="matrix(1441.58,-204.268,204.268,1441.58,109.33,560.195)"><stop offset="0" style="stop-color:white;stop-opacity:1"/><stop offset="1" style="stop-color:rgb(179,179,179);stop-opacity:1"/></linearGradient>
        <linearGradient id="_Linear10" x1="0" y1="0" x2="1" y2="0" gradientUnits="userSpaceOnUse" gradientTransform="matrix(1441.58,-204.268,204.268,1441.58,109.33,560.195)"><stop offset="0" style="stop-color:white;stop-opacity:1"/><stop offset="1" style="stop-color:rgb(179,179,179);stop-opacity:1"/></linearGradient>
        <linearGradient id="_Linear11" x1="0" y1="0" x2="1" y2="0" gradientUnits="userSpaceOnUse" gradientTransform="matrix(1441.58,-204.268,204.268,1441.58,109.33,560.195)"><stop offset="0" style="stop-color:white;stop-opacity:1"/><stop offset="1" style="stop-color:rgb(179,179,179);stop-opacity:1"/></linearGradient>
        <linearGradient id="_Linear12" x1="0" y1="0" x2="1" y2="0" gradientUnits="userSpaceOnUse" gradientTransform="matrix(-2500,3.06162e-13,-3.06162e-13,-2500,2500,735.5)"><stop offset="0" style="stop-color:rgb(156,128,78);stop-opacity:1"/><stop offset="1" style="stop-color:rgb(210,202,186);stop-opacity:1"/></linearGradient>
        <linearGradient id="_Linear13" x1="0" y1="0" x2="1" y2="0" gradientUnits="userSpaceOnUse" gradientTransform="matrix(1065.93,-71.4415,71.4415,1065.93,173.837,911.203)"><stop offset="0" style="stop-color:white;stop-opacity:1"/><stop offset="1" style="stop-color:rgb(179,179,179);stop-opacity:1"/></linearGradient>
        <linearGradient id="_Linear14" x1="0" y1="0" x2="1" y2="0" gradientUnits="userSpaceOnUse" gradientTransform="matrix(321.55,-333,333,321.55,983,387)"><stop offset="0" style="stop-color:rgb(235,235,235);stop-opacity:1"/><stop offset="1" style="stop-color:rgb(163,163,163);stop-opacity:1"/></linearGradient>
        <linearGradient id="_Linear15" x1="0" y1="0" x2="1" y2="0" gradientUnits="userSpaceOnUse" gradientTransform="matrix(306.78,-306.78,306.78,306.78,1043.13,388.52)"><stop offset="0" style="stop-color:rgb(200,184,156);stop-opacity:1"/><stop offset="1" style="stop-color:rgb(108,79,28);stop-opacity:1"/></linearGradient>
    </defs>
</svg>
