<?xml version="1.0" encoding="UTF-8" standalone="no"?>
<!DOCTYPE svg PUBLIC "-//W3C//DTD SVG 1.1//EN" "http://www.w3.org/Graphics/SVG/1.1/DTD/svg11.dtd">
<svg width="100%" height="100%" viewBox="0 0 50 50" version="1.1" xmlns="http://www.w3.org/2000/svg" xmlns:xlink="http://www.w3.org/1999/xlink" xml:space="preserve" xmlns:serif="http://www.serif.com/" style="fill-rule:evenodd;clip-rule:evenodd;stroke-linejoin:round;stroke-miterlimit:2;">
    <g transform="matrix(0.0976563,0,0,0.0976563,-0.000146484,2.33147e-15)">
        <g>
            <path d="M421.054,414.843C416.912,414.843 413.554,418.201 413.554,422.343L413.554,492.857C413.554,495.14 411.696,496.998 409.413,496.998L369.096,496.998L369.096,349.301C369.096,345.159 365.738,341.801 361.596,341.801C357.454,341.801 354.096,345.159 354.096,349.301L354.096,496.999L272.911,496.999L296.454,471.099C299.026,468.269 300.239,464.238 299.698,460.312C299.688,460.236 299.676,460.16 299.663,460.084L277.24,327.617L283.281,318.523C286.621,320.895 289.194,323.179 294.019,323.179C298.927,323.179 303.516,320.432 305.774,315.91L305.774,315.909L329.424,268.509L383.3,289.374C385.249,290.21 413.552,302.956 413.552,336.612L413.552,387.342C413.551,391.483 416.909,394.842 421.052,394.842C425.194,394.842 428.552,391.484 428.552,387.342L428.552,336.612C428.552,292.268 390.583,276.149 388.967,275.484C388.92,275.464 388.872,275.445 388.824,275.427L299.156,240.701L299.156,219.671C313.398,208.595 323.273,192.176 325.752,173.444C332.853,172.944 339.442,170.292 344.823,165.665C351.85,159.622 355.882,150.827 355.882,141.539C355.882,133.831 353.101,126.471 348.145,120.736L348.145,92.953C348.144,41.699 306.446,0 255.192,0C203.938,0 162.24,41.699 162.24,92.953L162.24,121.464C157.231,127.141 154.507,134.129 154.507,141.538C154.507,150.829 158.537,159.623 165.566,165.667C170.943,170.292 177.528,172.941 184.627,173.442C187.126,192.525 197.289,209.556 212.744,220.781L212.744,240.701L123.173,275.426C123.126,275.444 123.079,275.463 123.032,275.482C121.415,276.147 83.447,292.266 83.447,336.61L83.447,492.855C83.447,503.41 92.034,511.997 102.589,511.997L174.046,511.997C178.188,511.997 181.546,508.639 181.546,504.497C181.546,500.355 178.188,496.997 174.046,496.997L157.909,496.997L157.909,349.301C157.909,345.159 154.551,341.801 150.409,341.801C146.267,341.801 142.909,345.159 142.909,349.301L142.909,496.999L102.59,496.999C100.307,496.999 98.449,495.141 98.449,492.858L98.449,336.611C98.449,302.842 126.942,290.125 128.692,289.377L182.526,268.507L206.178,315.909C208.441,320.442 213.036,323.179 217.934,323.179C222.735,323.179 225.283,320.93 228.672,318.523L234.713,327.617L212.292,460.085C212.279,460.16 212.268,460.235 212.257,460.311C211.715,464.235 212.928,468.268 215.501,471.1L239.044,497L209.049,497C204.907,497 201.549,500.358 201.549,504.5C201.549,508.642 204.907,512 209.049,512L409.414,512C419.969,512 428.556,503.412 428.556,492.858L428.556,422.344C428.554,418.201 425.196,414.843 421.054,414.843ZM315.375,263.069L293.326,307.259C292.778,306.87 281.093,298.568 266.809,288.425C273.007,280.774 265.756,289.724 294.044,254.808L315.375,263.069ZM271.043,309.833L265.325,318.44L246.622,318.44L240.904,309.833L255.974,299.13L271.043,309.833ZM227.743,243.121L227.743,229.085C236.855,232.758 246.593,234.461 256.103,234.461C265.936,234.461 275.579,232.365 284.155,228.615L284.155,243.182L255.974,277.967L227.743,243.121ZM340.881,141.539C340.88,146.452 338.752,151.101 335.042,154.292C332.589,156.402 329.626,157.751 326.381,158.279L326.381,124.802C335.001,126.202 340.881,133.352 340.881,141.539ZM184.007,158.279C175.289,156.864 169.507,149.656 169.507,141.538C169.507,133.52 176.154,126.994 184.007,125.179L184.007,158.279ZM184.41,109.896C182.021,110.17 179.283,110.817 177.242,111.511L177.242,92.953C177.242,49.97 212.21,15.001 255.193,15.001C298.176,15.001 333.144,49.97 333.144,92.953L333.144,110.996C330.964,110.333 328.703,109.895 326.382,109.689C326.382,102.452 326.445,103.848 302.77,78.395C298.416,73.717 291.214,72.737 285.733,76.318C259.603,93.387 227.728,101.962 198.318,99.85C191.867,99.367 185.991,103.616 184.41,109.896ZM199.008,164.184L199.008,114.927C231.383,116.823 265.326,107.205 292.747,89.644C303.605,101.302 309.485,107.417 311.381,109.743L311.381,164.183C311.381,194.63 286.555,219.459 256.104,219.459C221.91,219.46 199.008,192.934 199.008,164.184ZM218.623,307.259L196.574,263.069L217.867,254.822L245.108,288.447C231.255,298.284 219.88,306.366 218.623,307.259ZM227.228,461.702L248.937,333.439L263.008,333.439L284.717,461.702L255.973,493.325L227.228,461.702Z" style="fill:rgb(156,128,78);fill-rule:nonzero;"/>
        </g>
    </g>
</svg>
