<?xml version="1.0" encoding="UTF-8" standalone="no"?>
<!DOCTYPE svg PUBLIC "-//W3C//DTD SVG 1.1//EN" "http://www.w3.org/Graphics/SVG/1.1/DTD/svg11.dtd">
<svg width="100%" height="100%" viewBox="0 0 200 200" version="1.1" xmlns="http://www.w3.org/2000/svg" xmlns:xlink="http://www.w3.org/1999/xlink" xml:space="preserve" xmlns:serif="http://www.serif.com/" style="fill-rule:evenodd;clip-rule:evenodd;stroke-linejoin:round;stroke-miterlimit:2;">
    <g id="insurance-clipboard-document-report-security">
    </g>
    <g transform="matrix(0.40121,0,0,0.40121,-3.20968,-3.20968)">
        <g transform="matrix(1.00503,0,0,1.00503,8,8)">
            <path d="M457.711,317.48L376,290.23L376,273.656C393.68,262.098 406.91,244.352 412.711,223.52C432.527,221.16 448,204.441 448,184L448,96.984C448,74.961 433.77,55.711 413.016,49.113C392.098,18.336 357.48,0 320.223,0C258.344,0 208,50.344 208,112.223L208,184C208,204.441 223.473,221.16 243.289,223.52C249.078,244.359 262.32,262.098 280,273.656L280,290.23L198.297,317.465C186.535,321.383 176.672,328.969 169.855,338.938C151.984,317.398 125.121,304 96,304C43.063,304 0,347.063 0,400C0,452.938 43.063,496 96,496C120.176,496 142.785,486.742 160,471.305L160,496L496,496L496,370.594C496,346.457 480.617,325.105 457.711,317.48ZM415.664,206.633C415.832,204.434 416,202.238 416,200L416,161.473C425.289,164.785 432,173.586 432,184C432,194.535 425.129,203.414 415.664,206.633ZM320.223,16C352.473,16 382.398,32.016 400.281,58.84L403.055,63.008L406.055,63.762C421.336,67.586 432,81.238 432,96.984L432,152.207C427.008,148.426 421.16,145.785 414.734,144.688C411.625,135.039 402.664,128 392,128L376,128C353.945,128 336,110.055 336,88L320,88C320,110.055 302.055,128 280,128L264,128C253.336,128 244.375,135.039 241.266,144.68C234.84,145.785 229,148.426 224,152.199L224,112.215C224,59.168 267.168,16 320.223,16ZM224,184C224,173.586 230.711,164.785 240,161.473L240,200C240,202.238 240.168,204.434 240.336,206.633C230.871,203.414 224,194.535 224,184ZM256,200L256,152C256,147.594 259.594,144 264,144L280,144C300.344,144 318.191,133.098 328,116.824C337.809,133.098 355.656,144 376,144L392,144C396.406,144 400,147.594 400,152L400,200C400,239.695 367.695,272 328,272C288.305,272 256,239.695 256,200ZM328,288C339.297,288 350.063,285.785 360,281.887L360,295.016C356.328,309.727 343.168,320 328,320C312.832,320 299.672,309.727 296,295.016L296,281.887C305.938,285.785 316.703,288 328,288ZM96,480C51.887,480 16,444.113 16,400C16,355.887 51.887,320 96,320C131.574,320 163.199,343.922 172.902,378.176L174.551,384L384,384L384,416L352,416L352,448L336,448L336,416L288,416L288,448L272,448L272,416L174.551,416L172.902,421.824C163.199,456.078 131.574,480 96,480ZM480,480L432,480L432,400L416,400L416,480L176,480L176,452.848C180.266,446.426 183.809,439.457 186.449,432L256,432L256,464L304,464L304,432L320,432L320,464L368,464L368,432L400,432L400,368L186.449,368C184.656,362.945 182.434,358.121 179.879,353.52C184.527,343.656 192.895,336.145 203.359,332.648L282.953,306.121C290.512,324.016 308.063,336 328,336C347.938,336 365.488,324.016 373.055,306.121L452.656,332.648C469.008,338.105 480,353.352 480,370.594L480,480Z" style="fill:rgb(156,128,78);fill-rule:nonzero;"/>
        </g>
        <g transform="matrix(1.00503,0,0,1.00503,8,8)">
            <path d="M296,168C296,172.418 292.418,176 288,176C283.582,176 280,172.418 280,168C280,163.582 283.582,160 288,160C292.418,160 296,163.582 296,168Z" style="fill:rgb(156,128,78);fill-rule:nonzero;"/>
        </g>
        <g transform="matrix(1.00503,0,0,1.00503,8,8)">
            <path d="M376,168C376,172.418 372.418,176 368,176C363.582,176 360,172.418 360,168C360,163.582 363.582,160 368,160C372.418,160 376,163.582 376,168Z" style="fill:rgb(156,128,78);fill-rule:nonzero;"/>
        </g>
        <g transform="matrix(1.00503,0,0,1.00503,8,8)">
            <path d="M360,216L344,216C344,224.824 336.824,232 328,232C319.176,232 312,224.824 312,216L296,216C296,233.648 310.352,248 328,248C345.648,248 360,233.648 360,216Z" style="fill:rgb(156,128,78);fill-rule:nonzero;"/>
        </g>
        <g transform="matrix(1.00503,0,0,1.00503,8,8)">
            <path d="M72,360C49.945,360 32,377.945 32,400C32,422.055 49.945,440 72,440C94.055,440 112,422.055 112,400C112,377.945 94.055,360 72,360ZM72,424C58.77,424 48,413.23 48,400C48,386.77 58.77,376 72,376C85.23,376 96,386.77 96,400C96,413.23 85.23,424 72,424Z" style="fill:rgb(156,128,78);fill-rule:nonzero;"/>
        </g>
        <g transform="matrix(1.00503,0,0,1.00503,8,8)">
            <path d="M192,147.609L96,86.512L0,147.609L0,272L192,272L192,147.609ZM156.527,144L35.473,144L96,105.488L156.527,144ZM112,256L80,256L80,208L112,208L112,256ZM128,256L128,192L64,192L64,256L16,256L16,160L176,160L176,256L128,256Z" style="fill:rgb(156,128,78);fill-rule:nonzero;"/>
        </g>
    </g>
</svg>
