<?xml version="1.0" encoding="UTF-8" standalone="no"?>
<!DOCTYPE svg PUBLIC "-//W3C//DTD SVG 1.1//EN" "http://www.w3.org/Graphics/SVG/1.1/DTD/svg11.dtd">
<svg width="100%" height="100%" viewBox="0 0 200 200" version="1.1" xmlns="http://www.w3.org/2000/svg" xmlns:xlink="http://www.w3.org/1999/xlink" xml:space="preserve" xmlns:serif="http://www.serif.com/" style="fill-rule:evenodd;clip-rule:evenodd;stroke-linejoin:round;stroke-miterlimit:2;">
    <g transform="matrix(0.390624,0,0,0.390624,-0.000585936,0)">
        <g>
            <g>
                <path d="M257.048,349.706C275.073,349.706 289.738,335.042 289.738,317.018C289.738,298.993 275.074,284.328 257.048,284.328C239.024,284.328 224.36,298.992 224.36,317.018C224.361,335.042 239.025,349.706 257.048,349.706ZM257.048,299.329C266.802,299.329 274.737,307.264 274.737,317.018C274.737,326.771 266.802,334.705 257.048,334.705C247.295,334.705 239.361,326.77 239.361,317.018C239.361,307.265 247.295,299.329 257.048,299.329Z" style="fill:rgb(156,128,78);fill-rule:nonzero;"/>
                <path d="M402.059,108.348C431.931,108.348 456.234,84.046 456.234,54.175C456.235,24.302 431.931,0 402.059,0C372.188,0 347.887,24.302 347.887,54.174C347.887,84.045 372.189,108.348 402.059,108.348ZM402.059,15.001C423.66,15.001 441.233,32.574 441.233,54.174C441.233,75.774 423.66,93.346 402.059,93.346C380.46,93.346 362.888,75.774 362.888,54.174C362.888,32.574 380.46,15.001 402.059,15.001Z" style="fill:rgb(156,128,78);fill-rule:nonzero;"/>
                <path d="M482.323,191.729C478.18,191.729 474.823,195.086 474.823,199.229L474.823,301.859C474.823,304.53 472.65,306.703 469.98,306.703L451.68,306.703L451.68,174.311C451.68,170.168 448.323,166.811 444.18,166.811C440.037,166.811 436.68,170.168 436.68,174.311L436.68,492.156C436.68,494.826 434.507,496.999 431.837,496.999L414.406,496.999C411.735,496.999 409.562,494.826 409.562,492.156L409.562,372.836C409.562,368.694 406.205,365.336 402.062,365.336C397.919,365.336 394.562,368.694 394.562,372.836L394.562,492.156C394.562,494.826 392.389,496.999 389.719,496.999L372.288,496.999C369.618,496.999 367.445,494.826 367.445,492.156L367.445,174.311C367.445,170.168 364.088,166.811 359.945,166.811C355.802,166.811 352.445,170.168 352.445,174.311L352.445,306.704L334.145,306.704C331.476,306.704 329.303,304.532 329.302,301.866L329.302,174.288C329.302,149.655 349.342,129.615 373.975,129.615L430.153,129.615C454.786,129.615 474.826,149.655 474.826,174.288C474.826,178.431 478.183,181.788 482.326,181.788C486.469,181.788 489.826,178.431 489.826,174.288C489.826,141.384 463.056,114.614 430.152,114.614L373.97,114.614C341.066,114.614 314.296,141.384 314.296,174.288L314.296,301.869C314.301,312.808 323.203,321.705 334.14,321.705L352.44,321.705L352.44,492.156C352.44,503.098 361.342,512 372.284,512L389.715,512C394.38,512 398.667,510.371 402.059,507.666C405.451,510.371 409.738,512 414.404,512L431.835,512C442.777,512 451.679,503.099 451.679,492.156L451.679,321.704L469.979,321.704C480.921,321.704 489.823,312.801 489.823,301.859L489.823,199.229C489.824,195.086 486.466,191.729 482.323,191.729Z" style="fill:rgb(156,128,78);fill-rule:nonzero;"/>
                <path d="M100.153,154.195C130.025,154.195 154.328,129.893 154.328,100.022C154.328,70.15 130.025,45.848 100.153,45.848C70.282,45.848 45.981,70.15 45.981,100.022C45.982,129.893 70.282,154.195 100.153,154.195ZM100.153,60.849C121.754,60.849 139.327,78.422 139.327,100.022C139.327,121.622 121.754,139.194 100.153,139.194C78.554,139.194 60.982,121.622 60.982,100.022C60.983,78.422 78.555,60.849 100.153,60.849Z" style="fill:rgb(156,128,78);fill-rule:nonzero;"/>
                <path d="M124.82,161.237L75.491,161.237C46.094,161.237 22.178,185.153 22.178,214.55L22.178,326.575C22.181,336.683 30.407,344.906 40.517,344.906L40.744,344.906L35.552,392.16C35.32,394.279 35.999,396.397 37.421,397.984C38.844,399.572 40.875,400.479 43.007,400.479L55.672,400.479L55.672,493.662C55.672,503.774 63.9,512.001 74.011,512.001L89.317,512.001C93.374,512.001 97.115,510.661 100.156,508.422C103.197,510.661 106.937,512.001 110.996,512.001L126.302,512.001C136.414,512.001 144.641,503.774 144.641,493.662L144.641,452.247C144.641,448.104 141.284,444.747 137.141,444.747C132.998,444.747 129.641,448.104 129.641,452.247L129.641,493.662C129.641,495.503 128.144,497 126.303,497L110.997,497C109.156,497 107.658,495.503 107.658,493.662L107.658,413.551C107.658,409.408 104.301,406.051 100.158,406.051C96.015,406.051 92.658,409.408 92.658,413.551L92.658,493.662C92.658,495.503 91.161,497 89.32,497L74.01,497C72.169,497 70.672,495.503 70.672,493.662L70.672,400.479L129.638,400.479L129.638,428.239C129.638,432.381 132.995,435.739 137.138,435.739C141.281,435.739 144.638,432.381 144.638,428.239L144.638,400.479L157.302,400.479C159.434,400.479 161.465,399.572 162.887,397.984C164.31,396.397 164.989,394.279 164.757,392.16L159.565,344.906L159.792,344.906C169.904,344.906 178.131,336.681 178.131,326.568L178.131,214.549C178.131,185.153 154.215,161.237 124.82,161.237ZM163.131,326.567C163.13,328.407 161.633,329.904 159.792,329.904L157.917,329.904L144.186,204.948C143.733,200.832 140.027,197.872 135.911,198.312C131.794,198.764 128.823,202.469 129.275,206.586L148.933,385.477L51.377,385.477L71.035,206.586C71.487,202.469 68.516,198.764 64.399,198.312C60.274,197.871 56.576,200.832 56.124,204.948L42.393,329.904L40.518,329.904C38.678,329.904 37.181,328.408 37.18,326.571L37.18,214.549C37.18,193.424 54.367,176.237 75.492,176.237L124.82,176.237C145.944,176.237 163.131,193.424 163.131,214.549L163.131,326.567Z" style="fill:rgb(156,128,78);fill-rule:nonzero;"/>
                <path d="M313.891,324.76C308.524,324.929 303.542,327.178 299.868,331.092L271.896,360.88L242.941,360.88L214.968,331.091C207.379,323.013 194.633,322.612 186.549,330.199C178.471,337.787 178.069,350.534 185.655,358.616L218.086,393.152L218.086,492.4C218.086,503.208 226.879,512 237.687,512L277.148,512C287.956,512 296.747,503.208 296.747,492.4L296.747,451.241C296.747,447.098 293.39,443.741 289.247,443.741C285.104,443.741 281.747,447.098 281.747,451.241L281.747,492.4C281.747,494.936 279.684,496.999 277.149,496.999L264.565,496.999L264.565,434.441C264.565,430.298 261.208,426.941 257.065,426.941C252.923,426.941 249.565,430.298 249.565,434.441L249.565,496.999L237.688,496.999C235.152,496.999 233.088,494.936 233.088,492.4L233.088,390.182C233.088,388.275 232.361,386.439 231.056,385.048L196.594,348.349C194.668,346.297 194.77,343.061 196.82,341.135C198.872,339.209 202.108,339.312 204.034,341.362L234.227,373.516C235.645,375.026 237.623,375.882 239.695,375.882L275.142,375.882C277.213,375.882 279.192,375.025 280.61,373.516L310.803,341.362C312.73,339.31 315.966,339.21 318.015,341.134C320.067,343.061 320.168,346.297 318.243,348.348L283.779,385.047C282.472,386.438 281.746,388.274 281.746,390.181L281.746,426.238C281.746,430.38 285.103,433.738 289.246,433.738C293.389,433.738 296.746,430.38 296.746,426.238L296.746,393.151L329.178,358.616C336.765,350.535 336.363,337.788 328.283,330.198C324.371,326.523 319.264,324.602 313.891,324.76Z" style="fill:rgb(156,128,78);fill-rule:nonzero;"/>
            </g>
        </g>
    </g>
</svg>
