<?xml version="1.0" encoding="UTF-8" standalone="no"?>
<!DOCTYPE svg PUBLIC "-//W3C//DTD SVG 1.1//EN" "http://www.w3.org/Graphics/SVG/1.1/DTD/svg11.dtd">
<svg width="100%" height="100%" viewBox="0 0 200 200" version="1.1" xmlns="http://www.w3.org/2000/svg" xmlns:xlink="http://www.w3.org/1999/xlink" xml:space="preserve" xmlns:serif="http://www.serif.com/" style="fill-rule:evenodd;clip-rule:evenodd;stroke-linejoin:round;stroke-miterlimit:2;">
    <g transform="matrix(0.4125,0,0,0.4125,-15.5013,-5.6)">
        <path d="M472,48L424,48C413.89,48.042 404.842,54.468 401.472,64L384,64C380.958,63.983 378.16,65.703 376.8,68.424L368.8,84.424C368.26,85.538 367.986,86.762 368,88L368,176L304,176L304,192L320,192L320,224.208C315.084,219.096 309.238,214.969 302.776,212.048L264,194.8L264,183.344C278.811,174.749 289.583,160.573 293.896,144L296,144C296.038,144 296.075,144 296.113,144C309.244,144 320.049,133.195 320.049,120.064C320.049,108.022 310.962,97.761 299.008,96.304L309.656,85.656C311.156,84.157 312,82.121 312,80L312,56C311.974,34.067 293.933,16.026 272,16L144,16C143.999,16 143.998,16 143.996,16C139.608,16 135.996,19.611 135.996,24C135.996,25.241 136.285,26.466 136.84,27.576L151.056,56L144.84,68.424C143.307,71.496 143.915,75.229 146.344,77.656L164.992,96.304C153.038,97.761 143.951,108.022 143.951,120.064C143.951,133.195 154.756,144 167.887,144C167.925,144 167.962,144 168,144L170.104,144C174.417,160.573 185.189,174.749 200,183.344L200,194.8L161.224,212.048C154.762,214.969 148.916,219.096 144,224.208L144,192L160,192L160,176L72,176C67.614,176.003 64.006,179.614 64.006,184C64.006,184.537 64.061,185.073 64.168,185.6L104.168,377.6C104.925,381.308 108.215,383.997 112,384L368,384L368,400L104,400C90.834,400 80,410.834 80,424C80,437.166 90.834,448 104,448L124.448,448C121.569,452.842 120.033,458.366 120,464C120,481.555 134.445,496 152,496C169.555,496 184,481.555 184,464C183.967,458.366 182.431,452.842 179.552,448L292.448,448C289.569,452.842 288.033,458.366 288,464C288,481.555 302.445,496 320,496C337.555,496 352,481.555 352,464C351.967,458.366 350.431,452.842 347.552,448L376,448L376,432L104,432C99.611,432 96,428.389 96,424C96,419.611 99.611,416 104,416L376,416C380.389,416 384,412.389 384,408L384,89.888L388.944,80L401.472,80C404.842,89.532 413.89,95.958 424,96L472,96C485.166,96 496,85.166 496,72C496,58.834 485.166,48 472,48ZM168,464C168,472.777 160.777,480 152,480C143.223,480 136,472.777 136,464C136,455.223 143.223,448 152,448C160.777,448 168,455.223 168,464ZM336,464C336,472.777 328.777,480 320,480C311.223,480 304,472.777 304,464C304,455.223 311.223,448 320,448C328.777,448 336,455.223 336,464ZM368,192L368,224L336,224L336,192L368,192ZM101.84,288L128,288L128,320L108.504,320L101.84,288ZM128,240L128,272L98.504,272L91.84,240L128,240ZM144,288L176,288L176,320L144,320L144,288ZM238.264,222.4L232,228.688L225.736,222.424L228.936,216.024L235.048,216.024L238.264,222.4ZM226.4,245.72C229.469,248.742 234.467,248.742 237.536,245.72L245.304,272L218.696,272L226.4,245.72ZM272,288L272,320L240,320L240,288L272,288ZM224,288L224,320L192,320L192,288L224,288ZM176,336L176,368L144,368L144,336L176,336ZM192,336L224,336L224,368L192,368L192,336ZM240,336L272,336L272,368L240,368L240,336ZM288,336L320,336L320,368L288,368L288,336ZM288,320L288,288L320,288L320,320L288,320ZM336,288L368,288L368,320L336,320L336,288ZM336,272L336,240L368,240L368,272L336,272ZM320,263.2L320,272L261.984,272L250.584,233.296L269.472,239.592C270.288,239.862 271.141,239.999 272,240C275.657,240 278.871,237.492 279.76,233.944L283.048,220.784L296.272,226.664C310.675,233.078 319.998,247.434 320,263.2ZM268.208,214.184L266.336,221.68L253.672,217.456L250.736,211.576L256.2,208.848L268.208,214.184ZM304,120C304,124.389 300.389,128 296,128L296,112C300.389,112 304,115.611 304,120ZM167.2,52.424L156.944,32L272,32C285.166,32 296,42.834 296,56L296,76.688L284.688,88L283.528,88C280.092,88.001 277.022,85.788 275.936,82.528L271.584,69.472C270.774,67.033 268.836,65.128 266.384,64.36C265.612,64.122 264.808,64.001 264,64C262.269,64 260.585,64.562 259.2,65.6L244.272,76.8C234.568,84.046 222.783,87.974 210.672,88L179.312,88L161.712,70.4L167.2,59.576C168.324,57.326 168.324,54.674 167.2,52.424ZM160,120C160,115.611 163.611,112 168,112L168,128C163.611,128 160,124.389 160,120ZM184,128L184,104L210.664,104C226.235,103.971 241.39,98.92 253.864,89.6L259.92,85.064L260.768,87.592C263.619,96.152 271.074,102.404 280,103.72L280,128C280,154.332 258.332,176 232,176C205.668,176 184,154.332 184,128ZM232,192C237.401,191.981 242.778,191.274 248,189.896L248,195.056L238.112,200L225.888,200L216,195.056L216,189.896C221.222,191.274 226.599,191.981 232,192ZM207.8,208.848L213.264,211.576L210.328,217.456L197.664,221.68L195.792,214.184L207.8,208.848ZM167.728,226.664L180.952,220.784L184.24,233.944C185.129,237.492 188.343,240 192,240C192.859,239.999 193.712,239.862 194.528,239.592L213.416,233.296L202.016,272L144,272L144,263.2C144.002,247.434 153.325,233.078 167.728,226.664ZM128,192L128,224L88.504,224L81.832,192L128,192ZM111.84,336L128,336L128,368L118.504,368L111.84,336ZM336,368L336,336L368,336L368,368L336,368ZM472,80L424,80C419.611,80 416,76.389 416,72C416,67.611 419.611,64 424,64L472,64C476.389,64 480,67.611 480,72C480,76.389 476.389,80 472,80Z" style="fill:rgb(156,128,78);fill-rule:nonzero;"/>
    </g>
    <g transform="matrix(0.4125,0,0,0.4125,-15.5013,-5.6)">
        <rect x="200" y="112" width="16" height="16" style="fill:rgb(156,128,78);"/>
    </g>
    <g transform="matrix(0.4125,0,0,0.4125,-15.5013,-5.6)">
        <rect x="248" y="112" width="16" height="16" style="fill:rgb(156,128,78);"/>
    </g>
</svg>
